<?xml version="1.0" encoding="UTF-8" standalone="no"?>
<svg
   xmlns:dc="http://purl.org/dc/elements/1.1/"
   xmlns:cc="http://creativecommons.org/ns#"
   xmlns:rdf="http://www.w3.org/1999/02/22-rdf-syntax-ns#"
   xmlns:svg="http://www.w3.org/2000/svg"
   xmlns="http://www.w3.org/2000/svg"
   xmlns:xlink="http://www.w3.org/1999/xlink"
   id="svg1117"
   viewBox="0 0 244.057 246.3702"
   version="1.1"
   width="244.05701"
   height="246.37021">
  <metadata
     id="metadata1123">
    <rdf:RDF>
      <cc:Work
         rdf:about="">
        <dc:format>image/svg+xml</dc:format>
        <dc:type
           rdf:resource="http://purl.org/dc/dcmitype/StillImage" />
        <dc:title></dc:title>
      </cc:Work>
    </rdf:RDF>
  </metadata>
  <defs
     id="defs1121">
    <linearGradient
       xlink:href="#b"
       gradientUnits="userSpaceOnUse"
       gradientTransform="translate(7.8571,-7.1429)"
       y2="699.84003"
       y1="738.41998"
       x2="374"
       x1="311.48001"
       id="cy" />
    <linearGradient
       id="b">
      <stop
         id="stop1816"
         offset="0"
         stop-color="#007400" />
      <stop
         id="stop1818"
         offset="1"
         stop-color="#002400" />
    </linearGradient>
    <linearGradient
       xlink:href="#b"
       gradientUnits="userSpaceOnUse"
       gradientTransform="matrix(-0.96979,-0.24394,-0.24394,0.96979,1194.8,191.53)"
       y2="767.90997"
       y1="808.26001"
       x2="776.15002"
       x1="787.12"
       id="cv" />
    <linearGradient
       xlink:href="#a"
       gradientUnits="userSpaceOnUse"
       gradientTransform="matrix(-0.96979,-0.24394,-0.24394,0.96979,1194.8,191.53)"
       y2="710.45001"
       y1="747.95001"
       x2="799.94"
       x1="798.60999"
       id="cw" />
    <linearGradient
       id="a">
      <stop
         id="stop1821"
         offset="0"
         stop-color="#007400" />
      <stop
         id="stop1823"
         offset="1"
         stop-color="#23ce00" />
    </linearGradient>
    <linearGradient
       xlink:href="#a"
       gradientUnits="userSpaceOnUse"
       gradientTransform="matrix(-0.96979,-0.24394,-0.24394,0.96979,1194.8,191.53)"
       y2="718.51001"
       y1="740.22998"
       x2="824.95001"
       x1="815.45001"
       id="cx" />
    <linearGradient
       xlink:href="#b"
       gradientUnits="userSpaceOnUse"
       gradientTransform="matrix(0.93417,-0.35682,0.35682,0.93417,-382.57,262.37)"
       y2="565.58002"
       y1="577.71997"
       x2="441.89999"
       x1="440.78"
       id="em" />
    <linearGradient
       xlink:href="#b"
       gradientUnits="userSpaceOnUse"
       gradientTransform="matrix(0.93417,-0.35682,0.35682,0.93417,-382.57,262.37)"
       y2="586.17999"
       y1="596.90002"
       x2="453.17999"
       x1="457.20999"
       id="el" />
    <linearGradient
       xlink:href="#a"
       gradientUnits="userSpaceOnUse"
       gradientTransform="matrix(0.93417,-0.35682,0.35682,0.93417,-382.57,262.37)"
       y2="513.78003"
       y1="550.27002"
       x2="558.10999"
       x1="570.82001"
       id="ek" />
    <linearGradient
       xlink:href="#a"
       gradientUnits="userSpaceOnUse"
       gradientTransform="matrix(0.93417,-0.35682,0.35682,0.93417,-382.57,262.37)"
       y2="504.39999"
       y1="529.65997"
       x2="482.09"
       x1="477.66"
       id="ej" />
    <linearGradient
       xlink:href="#b"
       gradientUnits="userSpaceOnUse"
       gradientTransform="matrix(0.93417,-0.35682,0.35682,0.93417,-382.57,262.37)"
       y2="581.90997"
       y1="568.88"
       x2="490.26001"
       x1="514.35999"
       id="ei" />
    <linearGradient
       xlink:href="#a"
       gradientUnits="userSpaceOnUse"
       gradientTransform="matrix(0.93417,-0.35682,0.35682,0.93417,-382.57,262.37)"
       y2="531.32001"
       y1="551.14001"
       x2="463.37"
       x1="439.10001"
       id="eh" />
    <linearGradient
       xlink:href="#bx"
       gradientUnits="userSpaceOnUse"
       gradientTransform="translate(-235.88,6.0609)"
       y2="226.63"
       y1="234.49001"
       x2="724.66998"
       x1="671.94"
       id="eg" />
    <linearGradient
       id="bx">
      <stop
         id="stop1836"
         offset="0"
         stop-color="#c87137" />
      <stop
         id="stop1838"
         offset="1"
         stop-color="#824a24" />
    </linearGradient>
    <linearGradient
       xlink:href="#a"
       gradientUnits="userSpaceOnUse"
       gradientTransform="translate(-235.88,6.0609)"
       y2="253.14"
       y1="265.64001"
       x2="694.42999"
       x1="700.54999"
       id="ef" />
    <linearGradient
       xlink:href="#a"
       gradientUnits="userSpaceOnUse"
       gradientTransform="translate(-235.88,6.0609)"
       y2="255.91"
       y1="274.60001"
       x2="711.54999"
       x1="717.82001"
       id="ee" />
    <linearGradient
       xlink:href="#bx"
       gradientUnits="userSpaceOnUse"
       gradientTransform="translate(-235.88,6.0609)"
       y2="197.37"
       y1="189.16"
       x2="677.41998"
       x1="670.59003"
       id="ed" />
    <linearGradient
       spreadMethod="reflect"
       xlink:href="#ce"
       gradientUnits="userSpaceOnUse"
       gradientTransform="translate(-235.88,6.0609)"
       y2="558.17999"
       y1="563.35999"
       x2="705.40002"
       x1="692.71002"
       id="ec" />
    <linearGradient
       id="ce">
      <stop
         id="stop1804"
         offset="0"
         stop-color="#808080" />
      <stop
         id="stop1806"
         offset="1"
         stop-color="#d4d4d4" />
    </linearGradient>
    <linearGradient
       xlink:href="#cf"
       gradientUnits="userSpaceOnUse"
       gradientTransform="translate(-235.88,6.0609)"
       y2="590.90997"
       y1="607.34003"
       x2="731.59998"
       x1="696.87"
       id="eb" />
    <linearGradient
       id="cf">
      <stop
         id="stop1797"
         offset="0"
         stop-color="#785121" />
      <stop
         id="stop1799"
         offset=".78436"
         stop-color="#b37e31" />
      <stop
         id="stop1801"
         offset="1"
         stop-color="#784421" />
    </linearGradient>
    <linearGradient
       xlink:href="#cf"
       gradientUnits="userSpaceOnUse"
       gradientTransform="translate(-235.88,6.0609)"
       y2="574.15002"
       y1="587.01001"
       x2="779.02002"
       x1="753.70001"
       id="ea" />
    <linearGradient
       spreadMethod="reflect"
       xlink:href="#ce"
       gradientUnits="userSpaceOnUse"
       gradientTransform="translate(-235.88,6.0609)"
       y2="547.95001"
       y1="552.22998"
       x2="754.40002"
       x1="744.09998"
       id="dz" />
    <linearGradient
       xlink:href="#cg"
       gradientUnits="userSpaceOnUse"
       gradientTransform="translate(-235.88,6.0609)"
       y2="635.62"
       y1="628.12"
       x2="729.53003"
       x1="726.22998"
       id="dy" />
    <linearGradient
       id="cg">
      <stop
         id="stop1792"
         offset="0"
         stop-color="#5fbcd3" />
      <stop
         id="stop1794"
         offset="1"
         stop-color="#d2ecf3" />
    </linearGradient>
    <linearGradient
       xlink:href="#by"
       gradientUnits="userSpaceOnUse"
       gradientTransform="translate(-235.88,6.0609)"
       y2="630.90997"
       y1="640.54999"
       x2="730.60999"
       x1="735.08002"
       id="dx" />
    <linearGradient
       id="by">
      <stop
         id="stop1826"
         offset="0"
         stop-color="#784421" />
      <stop
         id="stop1828"
         offset="1"
         stop-color="#3c2210" />
    </linearGradient>
    <linearGradient
       xlink:href="#cg"
       gradientUnits="userSpaceOnUse"
       gradientTransform="translate(-235.88,6.0609)"
       y2="615.63"
       y1="608.65997"
       x2="782.53003"
       x1="778.37"
       id="dw" />
    <linearGradient
       xlink:href="#by"
       gradientUnits="userSpaceOnUse"
       gradientTransform="translate(-235.88,6.0609)"
       y2="607.84003"
       y1="616.77002"
       x2="783.79999"
       x1="787.46002"
       id="dv" />
    <linearGradient
       xlink:href="#c"
       gradientUnits="userSpaceOnUse"
       gradientTransform="matrix(0.502824,0,0,0.502824,354.30505,-113.53418)"
       y2="510.92001"
       y1="617.48999"
       x2="661.51001"
       x1="646.70001"
       id="du" />
    <linearGradient
       id="c">
      <stop
         id="stop1861"
         offset="0"
         stop-color="#e5e52b" />
      <stop
         id="stop1863"
         offset="1"
         stop-color="#6cb116" />
    </linearGradient>
    <linearGradient
       xlink:href="#b"
       gradientUnits="userSpaceOnUse"
       gradientTransform="translate(-235.88,6.0609)"
       y2="533.54999"
       y1="539.10999"
       x2="707.81"
       x1="697.58002"
       id="dt" />
    <linearGradient
       xlink:href="#b"
       gradientUnits="userSpaceOnUse"
       gradientTransform="translate(-235.88,6.0609)"
       y2="617.75"
       y1="641.67999"
       x2="746.84998"
       x1="766.76001"
       id="ds" />
    <linearGradient
       xlink:href="#b"
       gradientUnits="userSpaceOnUse"
       gradientTransform="translate(-235.88,6.0609)"
       y2="767.90997"
       y1="808.26001"
       x2="776.15002"
       x1="787.12"
       id="dr" />
    <linearGradient
       xlink:href="#by"
       gradientUnits="userSpaceOnUse"
       gradientTransform="translate(-235.88,6.0609)"
       y2="281.12"
       y1="276.82999"
       x2="583.51001"
       x1="546.84003"
       id="dq" />
    <linearGradient
       xlink:href="#cc"
       gradientUnits="userSpaceOnUse"
       y2="224.72"
       y1="223.92"
       x2="416.78"
       x1="411.79001"
       id="db" />
    <linearGradient
       id="cc">
      <stop
         id="stop1831"
         offset="0"
         stop-color="#814923" />
      <stop
         id="stop1833"
         offset="1"
         stop-opacity="0"
         stop-color="#814923" />
    </linearGradient>
    <linearGradient
       xlink:href="#cc"
       gradientUnits="userSpaceOnUse"
       y2="225.2"
       y1="223.92"
       x2="417.35001"
       x1="411.79001"
       id="dc" />
    <linearGradient
       xlink:href="#bx"
       gradientUnits="userSpaceOnUse"
       gradientTransform="translate(-235.88,6.0609)"
       y2="291.01999"
       y1="266.01999"
       x2="697.53003"
       x1="627"
       id="dp" />
    <linearGradient
       xlink:href="#cb"
       gradientUnits="userSpaceOnUse"
       gradientTransform="translate(-235.88,6.0609)"
       y2="256.28"
       y1="243.39999"
       x2="684.26001"
       x1="682.37"
       id="do" />
    <linearGradient
       id="cb">
      <stop
         id="stop1841"
         offset="0"
         stop-color="#ffecaf" />
      <stop
         id="stop1843"
         offset="1"
         stop-color="#ffd555" />
    </linearGradient>
    <linearGradient
       xlink:href="#cb"
       gradientUnits="userSpaceOnUse"
       gradientTransform="translate(-235.88,6.0609)"
       y2="246.74001"
       y1="221.23"
       x2="605.40002"
       x1="606.37"
       id="dn" />
    <linearGradient
       xlink:href="#b"
       gradientUnits="userSpaceOnUse"
       gradientTransform="translate(-235.88,6.0609)"
       y2="318.79999"
       y1="347.84"
       x2="712.16998"
       x1="741.79999"
       id="dm" />
    <linearGradient
       xlink:href="#a"
       gradientUnits="userSpaceOnUse"
       gradientTransform="translate(-235.88,6.0609)"
       y2="272.20001"
       y1="292.20001"
       x2="725.96002"
       x1="732.75"
       id="dl" />
    <linearGradient
       xlink:href="#a"
       gradientUnits="userSpaceOnUse"
       gradientTransform="translate(-235.88,6.0609)"
       y2="311.57001"
       y1="314.95999"
       x2="729.85999"
       x1="757.91998"
       id="dk" />
    <linearGradient
       xlink:href="#a"
       gradientUnits="userSpaceOnUse"
       gradientTransform="translate(-235.88,6.0609)"
       y2="422.54001"
       y1="445.04001"
       x2="721.25"
       x1="735.29999"
       id="dj" />
    <linearGradient
       xlink:href="#a"
       gradientUnits="userSpaceOnUse"
       gradientTransform="translate(-235.88,6.0609)"
       y2="572.92999"
       y1="602.65997"
       x2="860.67999"
       x1="866.51001"
       id="di" />
    <linearGradient
       xlink:href="#cd"
       gradientUnits="userSpaceOnUse"
       gradientTransform="translate(-235.88,6.0609)"
       y2="563.38"
       y1="515.90002"
       x2="672.95001"
       x1="623.53998"
       id="dh" />
    <linearGradient
       id="cd">
      <stop
         id="stop1809"
         offset="0"
         stop-color="#a00" />
      <stop
         id="stop1811"
         offset=".5"
         stop-color="#ff581f" />
      <stop
         id="stop1813"
         offset="1"
         stop-color="#a00" />
    </linearGradient>
    <linearGradient
       xlink:href="#cd"
       gradientUnits="userSpaceOnUse"
       gradientTransform="translate(-235.88,6.0609)"
       y2="558.40002"
       y1="488.70001"
       x2="731.27002"
       x1="691.12"
       id="dg" />
    <linearGradient
       xlink:href="#a"
       gradientUnits="userSpaceOnUse"
       gradientTransform="translate(-235.88,6.0609)"
       y2="681.42999"
       y1="725.10999"
       x2="751.29999"
       x1="701.54999"
       id="df" />
    <linearGradient
       xlink:href="#a"
       gradientUnits="userSpaceOnUse"
       gradientTransform="translate(-235.88,6.0609)"
       y2="710.45001"
       y1="747.95001"
       x2="799.94"
       x1="798.60999"
       id="de" />
    <linearGradient
       xlink:href="#a"
       gradientUnits="userSpaceOnUse"
       gradientTransform="translate(-235.88,6.0609)"
       y2="718.51001"
       y1="740.22998"
       x2="824.95001"
       x1="815.45001"
       id="dd" />
    <linearGradient
       xlink:href="#c"
       gradientUnits="userSpaceOnUse"
       gradientTransform="translate(-235.88,6.0609)"
       y2="282.95999"
       y1="307.20001"
       x2="647.95001"
       x1="636.81"
       id="cu" />
    <linearGradient
       xlink:href="#c"
       gradientUnits="userSpaceOnUse"
       gradientTransform="translate(-235.88,6.0609)"
       y2="384.73001"
       y1="364.51999"
       x2="573.45001"
       x1="567.60999"
       id="ct" />
    <linearGradient
       xlink:href="#bv"
       gradientUnits="userSpaceOnUse"
       gradientTransform="translate(-235.88,6.0609)"
       y2="285.28"
       y1="303.84"
       x2="625.15997"
       x1="619.09998"
       id="cs" />
    <linearGradient
       id="bv">
      <stop
         id="stop1866"
         offset="0"
         stop-color="#e6e638" />
      <stop
         id="stop1868"
         offset="1"
         stop-color="#ffffde" />
    </linearGradient>
    <linearGradient
       xlink:href="#bv"
       gradientUnits="userSpaceOnUse"
       gradientTransform="translate(-235.88,6.0609)"
       y2="293.85999"
       y1="311.67001"
       x2="590.06"
       x1="594.46997"
       id="cr" />
    <linearGradient
       xlink:href="#bw"
       gradientUnits="userSpaceOnUse"
       gradientTransform="translate(-235.88,6.0609)"
       y2="339.95999"
       y1="332.81"
       x2="628.19"
       x1="605.21002"
       id="cq" />
    <linearGradient
       id="bw">
      <stop
         id="stop1851"
         offset="0"
         stop-color="#b1f5ff" />
      <stop
         id="stop1853"
         offset="1"
         stop-color="#fff" />
    </linearGradient>
    <linearGradient
       xlink:href="#ca"
       gradientUnits="userSpaceOnUse"
       y2="366.32999"
       y1="344.60999"
       x2="380.98001"
       x1="378.16"
       id="cz" />
    <linearGradient
       id="ca">
      <stop
         id="stop1846"
         offset="0"
         stop-color="#4d4d4d" />
      <stop
         id="stop1848"
         offset="1" />
    </linearGradient>
    <linearGradient
       xlink:href="#bw"
       gradientUnits="userSpaceOnUse"
       gradientTransform="translate(-235.88,6.0609)"
       y2="339.25"
       y1="336.92999"
       x2="586"
       x1="577.79999"
       id="cp" />
    <linearGradient
       xlink:href="#ca"
       gradientUnits="userSpaceOnUse"
       y2="362.04999"
       y1="347.57999"
       x2="379.85001"
       x1="373.13"
       id="da" />
    <linearGradient
       xlink:href="#bv"
       gradientUnits="userSpaceOnUse"
       gradientTransform="translate(-235.88,6.0609)"
       y2="378.70999"
       y1="426.19"
       x2="465"
       x1="484.81"
       id="co" />
    <linearGradient
       xlink:href="#bv"
       gradientUnits="userSpaceOnUse"
       gradientTransform="translate(-235.88,6.0609)"
       y2="369.07999"
       y1="383.10001"
       x2="671.13"
       x1="674.70001"
       id="cn" />
    <linearGradient
       xlink:href="#c"
       gradientUnits="userSpaceOnUse"
       gradientTransform="translate(-235.88,6.0609)"
       y2="478.53"
       y1="424.57999"
       x2="572.96002"
       x1="563.91998"
       id="cm" />
    <linearGradient
       xlink:href="#bz"
       gradientUnits="userSpaceOnUse"
       gradientTransform="translate(-235.88,6.0609)"
       y2="405.45999"
       y1="427.79001"
       x2="489.17999"
       x1="494.97"
       id="cl" />
    <linearGradient
       id="bz">
      <stop
         id="stop1856"
         offset="0"
         stop-color="#848410" />
      <stop
         id="stop1858"
         offset="1"
         stop-color="#51310a" />
    </linearGradient>
    <linearGradient
       xlink:href="#bz"
       gradientUnits="userSpaceOnUse"
       gradientTransform="translate(-235.88,6.0609)"
       y2="402.14001"
       y1="415.70999"
       x2="457.35001"
       x1="446.01001"
       id="ck" />
    <linearGradient
       xlink:href="#bw"
       gradientUnits="userSpaceOnUse"
       gradientTransform="translate(-235.88,6.0609)"
       y2="458.22"
       y1="453.57001"
       x2="470.16"
       x1="472.48001"
       id="cj" />
    <linearGradient
       xlink:href="#bw"
       gradientUnits="userSpaceOnUse"
       gradientTransform="translate(-235.88,6.0609)"
       y2="478.97"
       y1="472.89999"
       x2="538.90997"
       x1="538.64001"
       id="ci" />
    <linearGradient
       xlink:href="#c"
       gradientUnits="userSpaceOnUse"
       gradientTransform="translate(-235.88,6.0609)"
       y2="467.82001"
       y1="502.67001"
       x2="610.21002"
       x1="641.71002"
       id="ch" />
    <linearGradient
       y2="510.92001"
       x2="661.51001"
       y1="617.48999"
       x1="646.70001"
       gradientTransform="matrix(0.502824,0,0,0.502824,354.30505,-113.53418)"
       gradientUnits="userSpaceOnUse"
       id="linearGradient7722"
       xlink:href="#c" />
    <clipPath
       id="clipPath8185"
       clipPathUnits="userSpaceOnUse">
      <circle
         r="30.203108"
         cy="27.866665"
         cx="286.68423"
         id="circle8187"
         style="fill:#000000;fill-opacity:1;stroke:#000000;stroke-width:1.67968464;stroke-miterlimit:4;stroke-dasharray:none;stroke-opacity:1" />
    </clipPath>
  </defs>
  <g
     transform="translate(2.1577827,-21.890075)"
     id="g9739">
    <circle
       style="display:inline;fill:#008248;fill-opacity:1;stroke:#000000;stroke-width:3.05699992;stroke-miterlimit:4;stroke-dasharray:none;stroke-opacity:1"
       id="path7348"
       cx="121.31782"
       cy="143.72748"
       r="120.5" />
    <circle
       style="display:inline;fill:#ffffff;fill-opacity:1;stroke:#000000;stroke-width:2.34421802;stroke-miterlimit:4;stroke-dasharray:none;stroke-opacity:1"
       id="path7350"
       cx="120.85398"
       cy="144.28835"
       r="90.569611" />
    <g
       id="text1459"
       style="font-style:normal;font-variant:normal;font-weight:normal;font-stretch:normal;font-size:18.66666603px;line-height:1.25;font-family:'Nasalization Rg';-inkscape-font-specification:'Nasalization Rg';letter-spacing:0px;word-spacing:0px;display:inline;fill:#ffffff;fill-opacity:1;stroke:none"
       transform="translate(0.70422537,16.901409)"
       aria-label="THAT IS NOW NAMED LATER">
      <path
         id="path1240"
         style="font-style:normal;font-variant:normal;font-weight:normal;font-stretch:normal;font-size:17.06666756px;font-family:Raiders;-inkscape-font-specification:Raiders;letter-spacing:1.41999996px;fill:#ffffff"
         d="m 78.15124,37.835502 4.017098,-1.760993 -3.295867,-7.518381 2.235195,-0.979852 -1.603395,-3.657591 -8.487486,3.720698 1.603395,3.65759 2.235194,-0.979852 z" />
      <path
         id="path1242"
         style="font-style:normal;font-variant:normal;font-weight:normal;font-stretch:normal;font-size:17.06666756px;font-family:Raiders;-inkscape-font-specification:Raiders;letter-spacing:1.41999996px;fill:#ffffff"
         d="m 87.045226,34.058969 4.214621,-1.214551 -1.190921,-4.132625 2.57469,-0.741963 1.190922,4.132625 4.214621,-1.214551 -3.379003,-11.725503 -4.214622,1.214551 1.12476,3.903034 -2.574691,0.741963 -1.124759,-3.903034 -4.214622,1.214551 z" />
      <path
         id="path1244"
         style="font-style:normal;font-variant:normal;font-weight:normal;font-stretch:normal;font-size:17.06666756px;font-family:Raiders;-inkscape-font-specification:Raiders;letter-spacing:1.41999996px;fill:#ffffff"
         d="m 105.30317,25.204581 0.18919,-1.419934 q 0.0676,-0.525566 0.10019,-0.925941 0.0495,-0.402633 0.0596,-0.713907 0.0101,-0.311274 0.01,-0.56954 -5e-5,-0.258265 -0.0339,-0.512013 l 0.0846,-0.01129 q 0.0339,0.253747 0.1016,0.502977 0.0677,0.24923 0.15913,0.546951 0.0914,0.29772 0.22795,0.675505 0.15345,0.375527 0.35655,0.864951 l 0.55514,1.320541 z m -5.18121,5.168584 4.66895,-0.623461 0.16887,-1.572182 3.2818,-0.43823 0.59238,1.470531 4.66896,-0.62346 -5.84425,-11.530579 -4.83813,0.64605 z" />
      <path
         id="path1246"
         style="font-style:normal;font-variant:normal;font-weight:normal;font-stretch:normal;font-size:17.06666756px;font-family:Raiders;-inkscape-font-specification:Raiders;letter-spacing:1.41999996px;fill:#ffffff"
         d="m 117.20229,28.622816 4.38608,-0.02223 -0.0416,-8.208962 2.4405,-0.01237 -0.0202,-3.993548 -9.26709,0.04697 0.0202,3.993549 2.44051,-0.01237 z" />
      <path
         id="path1248"
         style="font-style:normal;font-variant:normal;font-weight:normal;font-stretch:normal;font-size:17.06666756px;font-family:Raiders;-inkscape-font-specification:Raiders;letter-spacing:1.41999996px;fill:#ffffff"
         d="m 136.17262,29.932106 4.37706,0.826455 2.26405,-11.990797 -4.37706,-0.826454 z" />
      <path
         id="path1250"
         style="font-style:normal;font-variant:normal;font-weight:normal;font-stretch:normal;font-size:17.06666756px;font-family:Raiders;-inkscape-font-specification:Raiders;letter-spacing:1.41999996px;fill:#ffffff"
         d="m 142.77431,30.07835 q 1.91738,1.974009 4.22952,2.640891 2.24656,0.647963 4.01153,-0.175153 1.76497,-0.823115 2.3278,-2.774503 0.34527,-1.19707 -0.10225,-2.232024 -0.44751,-1.034955 -1.59697,-1.668449 -0.15452,-0.08009 -0.39798,-0.22136 -1.64582,-0.883233 -1.50393,-1.375179 0.1608,-0.55754 1.0791,-0.292679 0.57394,0.165538 1.10973,0.586509 0.55692,0.409302 1.03595,1.027051 l 2.16351,-2.697553 q -1.62756,-1.623984 -3.64454,-2.205732 -2.21376,-0.638503 -3.90368,0.170734 -1.68519,0.79284 -2.2291,2.678635 -0.35473,1.229866 0.0975,2.248422 0.45697,1.002159 1.69536,1.696827 0.10533,0.0659 0.24345,0.141267 0.15453,0.08009 0.34185,0.169646 1.17059,0.621825 1.0287,1.113772 -0.0804,0.278769 -0.37368,0.371807 -0.29327,0.09304 -0.73602,-0.03466 -0.60673,-0.174997 -1.24312,-0.67827 -0.61999,-0.498543 -1.34217,-1.381807 z" />
      <path
         id="path1252"
         style="font-style:normal;font-variant:normal;font-weight:normal;font-stretch:normal;font-size:17.06666756px;font-family:Raiders;-inkscape-font-specification:Raiders;letter-spacing:1.41999996px;fill:#ffffff"
         d="m 164.06873,38.748892 3.67445,2.100649 2.18536,-3.822618 q 0.28799,-0.503755 0.48706,-0.920737 0.20753,-0.431799 0.35156,-0.821273 l 0.11709,7.360344 3.76335,2.151472 6.05631,-10.593688 -3.67445,-2.10065 -2.03289,3.555924 q -0.41505,0.726001 -0.63953,1.187432 -0.22448,0.461431 -0.37697,0.865721 l -0.12131,-7.421734 -3.73372,-2.134531 z" />
      <path
         id="path1254"
         style="font-style:normal;font-variant:normal;font-weight:normal;font-stretch:normal;font-size:17.06666756px;font-family:Raiders;-inkscape-font-specification:Raiders;letter-spacing:1.41999996px;fill:#ffffff"
         d="m 184.80423,47.772075 q -0.71696,-0.579061 -0.77162,-1.434907 -0.0414,-0.845123 0.61275,-1.655024 0.65412,-0.809902 1.48903,-0.947282 0.85891,-0.139935 1.57587,0.439127 0.71696,0.579061 0.74762,1.437461 0.0414,0.845123 -0.61275,1.655024 -0.65412,0.809901 -1.48903,0.947282 -0.83491,0.137381 -1.55187,-0.441681 z m 6.51949,2.30392 q 0.84715,-1.048889 1.21786,-2.241261 0.3707,-1.192371 0.21136,-2.461841 -0.1379,-1.296023 -0.77777,-2.405139 -0.62659,-1.098393 -1.70203,-1.966986 -2.17744,-1.758631 -4.79604,-1.504277 -2.55988,0.23597 -4.29706,2.386855 -1.72646,2.137609 -1.41849,4.689825 0.1379,1.296023 0.75376,2.407693 0.63987,1.109117 1.71531,1.977709 1.04889,0.847145 2.27854,1.226023 1.22965,0.378877 2.50422,0.267531 1.29603,-0.137901 2.37297,-0.737934 1.09023,-0.58931 1.93737,-1.638198 z" />
      <path
         id="path1256"
         style="font-style:normal;font-variant:normal;font-weight:normal;font-stretch:normal;font-size:17.06666756px;font-family:Raiders;-inkscape-font-specification:Raiders;letter-spacing:1.41999996px;fill:#ffffff"
         d="m 199.26535,58.334313 0.10119,0.115558 q -0.20704,0.203976 -0.4959,0.54766 -0.27602,0.332441 -0.62103,0.793348 -0.0417,0.0819 -0.10591,0.138113 -0.0401,0.05781 -0.0674,0.104382 l -2.52577,3.43671 2.5185,2.876108 11.53028,-5.355442 -2.90077,-3.312659 -4.67415,2.822609 q -0.61797,0.38234 -1.0995,0.713253 -0.48152,0.330913 -0.8908,0.666615 l -0.0675,-0.07704 q 0.51519,-0.473815 1.26941,-1.451845 0.0401,-0.05781 0.0546,-0.09314 0.0257,-0.02249 0.0514,-0.04497 l 3.52394,-4.628363 -2.03504,-2.323997 -5.05303,2.882155 q -0.0369,0.0096 -0.0754,0.04338 -0.0257,0.02249 -0.0754,0.04338 -1.04335,0.59603 -1.6067,1.066652 l -0.0675,-0.07704 q 0.38679,-0.361381 0.77837,-0.795012 0.39157,-0.433631 0.85214,-0.995728 l 3.4149,-4.260663 -2.90077,-3.312659 -6.83058,10.722463 2.5185,2.876107 3.74004,-2.050015 q 0.0498,-0.02089 0.10112,-0.06586 0.0754,-0.04338 0.16213,-0.07391 0.50241,-0.28115 0.86838,-0.510873 0.37881,-0.240967 0.60833,-0.419263 z" />
      <path
         id="path1258"
         style="font-style:normal;font-variant:normal;font-weight:normal;font-stretch:normal;font-size:17.06666756px;font-family:Raiders;-inkscape-font-specification:Raiders;letter-spacing:1.41999996px;fill:#ffffff"
         d="m 206.81619,79.389764 1.83713,3.813044 3.96679,-1.911204 q 0.52276,-0.251864 0.92307,-0.482624 0.41569,-0.238168 0.75507,-0.477455 l -4.07449,6.130821 1.88158,3.905296 10.99325,-5.296554 -1.83713,-3.813044 -3.69004,1.777864 q -0.75338,0.36298 -1.19982,0.615964 -0.44644,0.252983 -0.80119,0.499678 l 4.10579,-6.183795 -1.86676,-3.874545 z" />
      <path
         id="path1260"
         style="font-style:normal;font-variant:normal;font-weight:normal;font-stretch:normal;font-size:17.06666756px;font-family:Raiders;-inkscape-font-specification:Raiders;letter-spacing:1.41999996px;fill:#ffffff"
         d="m 218.86937,96.5235 1.43163,-0.04947 q 0.52948,-0.02074 0.92971,-0.05512 0.40527,-0.01807 0.71389,-0.05987 0.30862,-0.04179 0.56328,-0.08477 0.25467,-0.04298 0.49925,-0.118572 l 0.0252,0.08153 q -0.24459,0.07559 -0.47909,0.183794 -0.23451,0.108203 -0.51289,0.247829 -0.27839,0.139627 -0.62822,0.337062 -0.34479,0.213741 -0.79365,0.49537 l -1.20989,0.766918 z m -5.95792,-4.249987 1.39088,4.500369 1.57838,-0.09482 0.97765,3.163303 -1.35161,0.828575 1.39088,4.50037 10.39871,-7.679608 -1.44128,-4.663426 z" />
      <path
         id="path1262"
         style="font-style:normal;font-variant:normal;font-weight:normal;font-stretch:normal;font-size:17.06666756px;font-family:Raiders;-inkscape-font-specification:Raiders;letter-spacing:1.41999996px;fill:#ffffff"
         d="m 218.92324,118.28846 0.58863,4.26033 11.82389,-3.58049 -0.61899,-4.48011 -3.06546,-0.48959 q -1.1287,-0.18863 -2.01894,-0.27237 -0.8879,-0.0668 -1.6796,-0.0608 l -0.009,-0.0676 q 0.59927,-0.15171 1.33669,-0.42588 0.75432,-0.27651 1.68059,-0.68015 0.13058,-0.0525 0.22735,-0.10033 0.11367,-0.0502 0.17895,-0.0764 l 2.87325,-1.27565 -0.61899,-4.4801 -12.37281,-0.39244 0.58863,4.26033 4.85683,-0.13694 q 0.5649,-0.0264 1.11057,-0.0673 0.548,-0.024 1.12981,-0.0527 -0.51474,0.14003 -1.08777,0.35704 -0.55612,0.21466 -1.18742,0.50863 l -4.45763,2.02865 0.35738,2.58663 4.8407,0.74395 q 0.68737,0.11177 1.28086,0.1676 0.6104,0.0535 1.14383,0.0487 -0.55323,0.1109 -1.10412,0.2387 -0.53399,0.12546 -1.08488,0.25326 z" />
      <path
         id="path1264"
         style="font-style:normal;font-variant:normal;font-weight:normal;font-stretch:normal;font-size:17.06666756px;font-family:Raiders;-inkscape-font-specification:Raiders;letter-spacing:1.41999996px;fill:#ffffff"
         d="m 219.34261,124.67942 -0.0738,8.25993 3.3108,0.0296 0.0354,-3.95931 1.27995,0.0114 -0.0313,3.49853 3.12308,0.0279 0.0313,-3.49853 1.17755,0.0105 -0.0345,3.85691 3.3108,0.0296 0.0729,-8.15755 z" />
      <path
         id="path1266"
         style="font-style:normal;font-variant:normal;font-weight:normal;font-stretch:normal;font-size:17.06666756px;font-family:Raiders;-inkscape-font-specification:Raiders;letter-spacing:1.41999996px;fill:#ffffff"
         d="m 222.21621,140.8365 4.68378,0.64124 -0.0255,0.186 q -0.36113,2.6378 -2.69456,2.31833 -1.21745,-0.16668 -1.68284,-0.91943 -0.46772,-0.73584 -0.28091,-2.22614 z m -3.09583,-4.81644 -0.43753,3.19579 q -0.27085,1.97834 -0.26381,3.18512 0.024,1.20909 0.3256,2.02555 0.61093,1.70287 1.85021,2.71661 1.23928,1.01373 2.9809,1.25217 1.74162,0.23845 3.20777,-0.4049 1.48306,-0.64102 2.5292,-2.11703 0.49308,-0.70766 0.83881,-1.84891 0.34573,-1.14125 0.57723,-2.83214 l 0.48151,-3.51706 z" />
      <path
         id="path1268"
         style="font-style:normal;font-variant:normal;font-weight:normal;font-stretch:normal;font-size:17.06666756px;font-family:Raiders;-inkscape-font-specification:Raiders;letter-spacing:1.41999996px;fill:#ffffff"
         d="m 214.10084,159.86701 -3.09174,8.08159 3.69809,1.41476 1.52452,-3.98501 7.69903,2.94539 1.56722,-4.09659 z" />
      <path
         id="path1270"
         style="font-style:normal;font-variant:normal;font-weight:normal;font-stretch:normal;font-size:17.06666756px;font-family:Raiders;-inkscape-font-specification:Raiders;letter-spacing:1.41999996px;fill:#ffffff"
         d="m 211.79721,176.28282 1.04038,0.9847 q 0.38652,0.36247 0.692,0.62333 0.29741,0.27589 0.54385,0.46631 0.24644,0.19042 0.45585,0.34158 0.2094,0.15116 0.43495,0.27225 l -0.0404,0.0752 q -0.22555,-0.12109 -0.46725,-0.21211 -0.24169,-0.091 -0.53657,-0.19121 -0.29488,-0.1002 -0.68109,-0.21069 -0.39428,-0.0954 -0.90996,-0.21734 l -1.39558,-0.32308 z m -1.15676,-7.22642 -2.22806,4.15014 1.1757,1.05735 -1.5661,2.91712 -1.53897,-0.3807 -2.22806,4.15014 12.76942,2.01279 2.30879,-4.3005 z" />
      <path
         id="path1272"
         style="font-style:normal;font-variant:normal;font-weight:normal;font-stretch:normal;font-size:17.06666756px;font-family:Raiders;-inkscape-font-specification:Raiders;letter-spacing:1.41999996px;fill:#ffffff"
         d="m 202.06388,183.93079 -2.54694,3.57089 6.68326,4.76684 -1.41716,1.98691 3.25131,2.31901 5.38128,-7.54472 -3.25131,-2.31901 -1.41717,1.98692 z" />
      <path
         id="path1274"
         style="font-style:normal;font-variant:normal;font-weight:normal;font-stretch:normal;font-size:17.06666756px;font-family:Raiders;-inkscape-font-specification:Raiders;letter-spacing:1.41999996px;fill:#ffffff"
         d="m 196.64791,191.25325 -5.51396,6.15047 2.46528,2.21014 2.64305,-2.94816 0.95307,0.85444 -2.33546,2.60505 2.32549,2.08483 2.33546,-2.60506 0.87682,0.78608 -2.5747,2.87192 2.46527,2.21014 5.4456,-6.07423 z" />
      <path
         id="path1276"
         style="font-style:normal;font-variant:normal;font-weight:normal;font-stretch:normal;font-size:17.06666756px;font-family:Raiders;-inkscape-font-specification:Raiders;letter-spacing:1.41999996px;fill:#ffffff"
         d="m 192.02385,208.95981 -0.51505,0.44806 q -0.47642,0.41446 -0.93389,0.38264 -0.45916,-0.008 -0.84001,-0.44553 -0.36965,-0.42491 -0.31375,-0.88071 0.043,-0.44461 0.51944,-0.85906 l 0.51504,-0.44806 z m -2.70322,-9.66005 -3.2448,2.82279 2.64356,3.03878 -4.25309,-1.63858 -3.70834,3.22604 5.719,1.60748 q -0.73446,0.81991 -0.662,1.8653 0.0836,1.05827 0.93497,2.03686 1.32178,1.51939 2.95792,1.47592 1.63446,-0.0194 3.46288,-1.61001 l 4.15901,-3.6181 z" />
    </g>
    <g
       transform="matrix(0.50503494,0,0,0.50503494,185.04982,-92.18399)"
       id="g2107">
      <g
         id="g7720"
         transform="matrix(0.66878506,0,0,0.66878506,-409.2008,152.91031)">
        <path
           style="stroke:#000000;stroke-width:2"
           id="path1931"
           d="m 223.21,683.93 c -0.25427,0.0746 -0.51075,0.17293 -0.76483,0.27598 -5.072,1.6663 -7.439,7.3752 -10.867,10.375 -10.809,1.9826 -13.618,15.347 -12.922,24.638 1.1977,19.525 6.8964,38.622 13.732,56.889 6.7468,15.114 17.813,31.232 34.877,35.014 13.364,1.7734 26.892,-4.4728 36.739,-13.16 4.6813,-5.316 8.0744,-12.58 15.934,-13.725 28.798,-12.006 56.871,-26.141 83.544,-42.31 14.029,-9.7872 19.271,-28.009 16.288,-44.367 -2.9032,-16.847 -14.341,-33.457 -31.163,-38.491 -12.747,-1.4119 -24.866,5.1531 -35.536,11.171 -20.943,13.986 -38.712,32.138 -56.868,49.37 -3.9103,-11.765 -7.4367,-26.896 -20.596,-31.456 -6.377,-3.415 -14.709,-5.6358 -21.273,-1.826 -3.4736,-1.4878 -7.3102,-3.5141 -11.125,-2.3973 z" />
        <path
           style="fill:url(#cy)"
           id="path1933"
           d="m 276.97,723.16 c 0,0 46.919,-46.806 64.471,-54.36 17.552,-7.5538 24.577,-9.2652 32.38,-4.2841 22.018,14.055 26.655,40.263 18.689,59.297 -3.6724,8.7433 -13.156,15.026 -17.414,17.624 -6.1988,3.7806 -27.892,14.988 -42.195,22.438 -14.303,7.4503 -40.824,18.088 -40.824,18.088 l 2.0458,-7.0349 c 0,0 -9.7936,18.804 -19.525,24.182 -9.7309,5.378 -22.667,10.686 -33.399,5.0405 -10.733,-5.6458 -23.749,-19.416 -31.266,-47.361 -7.5171,-27.946 -9.2966,-40.27 -6.4678,-49.686 2.8288,-9.4158 8.0262,-9.5815 8.0262,-9.5815 0,0 -2.6301,6.7958 -1.7058,11.54 0.9243,4.7438 5.0067,11.939 5.0067,11.939 0,0 -5.6728,-15.513 1.0339,-26.071 6.7067,-10.558 10.363,-8.2572 12.073,-7.735 1.71,0.52221 4.6099,1.804 4.6099,1.804 0,0 -5.7908,6.1849 -6.4066,12.659 -0.61571,6.474 2.9466,13.907 2.9466,13.907 0,0 -2.3665,-10.723 2.0634,-19.183 4.4299,-8.4607 7.9412,-10.708 15.777,-8.1844 7.8358,2.5236 14.046,5.2825 17.653,11.806 3.6069,6.5234 13.934,38.306 13.934,38.306 z" />
        <path
           style="fill:url(#cv)"
           id="path1935"
           d="m 227.17,781.93 c -4.9812,-8.1303 -17.157,-25.491 -12.89,-40.99 4.2668,-15.499 17.174,-16.303 25.136,-11.354 7.9619,4.9489 19.291,17.742 23.384,32.213 4.0935,14.471 5.4172,27.51 2.4636,33.396 -2.9536,5.8859 -12.539,8.9729 -19.584,5.3854 -8.597,-4.3779 -14.911,-12.776 -18.51,-18.65 z" />
        <path
           style="fill:url(#cw)"
           id="path1937"
           d="m 274.62,739.24 c -2.2206,-16.858 -11.569,-39.825 -14.424,-42.559 -3.7984,-3.6377 -12.055,-7.9799 -18.394,-7.6216 -6.2591,0.35376 -10.24,8.1007 -10.827,11.469 -0.58675,3.3679 -1.791,10.226 -0.84975,15.801 0.94129,5.5751 29.209,25.706 35.547,26.909 6.3376,1.2036 9.3749,-0.75982 8.9482,-3.9989 z" />
        <path
           style="fill:url(#cx)"
           id="path1939"
           d="m 231.85,689.81 c 0,0 -3.5947,-2.5318 -6.658,-2.0002 -3.0632,0.53151 -7.6643,5.6239 -9.6762,9.74 -2.0119,4.1161 -2.0983,10.93 -1.5672,14.254 0.5311,3.3236 3.5064,10.647 3.5064,10.647 l 12.07,-2.9531 c 0,0 -1.7677,-5.9132 -2.7717,-10.462 -1.004,-4.5492 -1.0142,-8.1323 0.0158,-10.933 1.03,-2.8007 5.0804,-8.292 5.0804,-8.292 z" />
        <path
           style="stroke:#000000;stroke-width:5"
           id="path1941"
           d="m 303.87,619.55 c 0,0 -3.0234,5.8857 -8.4231,12.274 -5.3997,6.3879 -16.719,16.388 -16.719,16.388 l -9.5443,-16.494 c 0,0 -3.0099,2.0283 -9.4383,-1.5312 -6.4284,-3.5595 -7.7454,-12.315 -7.7454,-12.315 l -1.1573,6.5246 c 0,0 3.1284,1.6436 4.6451,4.3758 1.5167,2.7322 1.783,5.1987 1.783,5.1987 0,0 8.4405,-2.1427 13.534,0.57518 5.0931,2.7178 6.8298,6.3798 6.8409,9.4168 0.0111,3.037 0.89098,6.7559 -8.115,14.319 -9.006,7.5626 -21.845,10.574 -28.983,8.1647 -7.1381,-2.4098 -14.531,-10.264 -14.531,-10.264 0,0 -7.3695,-0.3615 -13.811,-6.0786 -6.4415,-5.7171 -8.0463,-9.5647 -8.2762,-12.113 -0.22982,-2.548 0.68878,-5.8049 0.68878,-5.8049 0,0 -11.518,-4.672 -14.969,-13.581 -3.4506,-8.9088 -4.1106,-16.016 0.71748,-22.018 4.828,-6.0018 13.025,-10.566 13.025,-10.566 0,0 -1.71,-6.2284 5.2632,-12.619 6.9732,-6.3911 7.213,-4.7623 10.207,-4.8066 2.9937,-0.0444 12.977,0.44342 17.454,-0.59755 4.4768,-1.041 14.913,-5.1227 24.25,-5.2005 9.3369,-0.0778 19.535,-1.1537 22.794,0.37312 3.259,1.52682 15.459,10.821 15.459,10.821 0,0 6.6736,-1.5455 17.773,-7.2668 11.1,-5.7213 27.287,-16.014 35.465,-28.887 8.1773,-12.872 16.054,-37.29 19.852,-42.612 3.7976,-5.3214 8.617,-7.5924 12.929,-6.5632 4.3118,1.0292 7.8121,0.93471 10.707,6.137 2.8951,5.2023 5.5299,14.853 6.999,22.702 1.4691,7.8497 3.5958,21.76 2.4648,32.6 -1.131,10.84 -1.6282,14.139 -3.6011,16.582 -1.9729,2.4432 -17.566,18.064 -28.45,26.546 -10.884,8.482 -35.687,23.701 -50.283,25.83 -14.596,2.1285 -18.803,0.49148 -18.803,0.49148 z" />
        <path
           style="fill:#007400"
           id="path1943"
           d="m 300.45,575.65 c 2.6664,3.442 3.9371,9.6855 3.9371,9.6855 0,0 -13.533,-18.916 -23.762,-20.171 -10.228,-1.2544 -31.412,0.33777 -40.753,3.906 -9.3417,3.5682 -22.012,-0.57645 -26.776,2.9639 -4.7646,3.5403 -9.3196,10.632 -6.158,18.409 3.1616,7.7766 7.448,11.492 17.333,11.348 9.8851,-0.14386 34.733,-6.0453 34.733,-6.0453 0,0 -5.2223,4.1766 -10.998,4.6257 0,0 -0.79559,8.1836 4.3758,14.959 4.7573,6.2328 15.966,11.748 27.494,8.4226 15.798,-4.557 15.236,-24.17 15.236,-24.17 0,0 -0.23133,16.91 -5.9088,21.564 -5.6775,4.6536 -13.09,5.7648 -13.09,5.7648 l 10.023,12.228 c 0,0 13.196,-12.495 15.485,-21.016 2.2889,-8.5205 3.5132,-16.825 3.5132,-16.825 l 0.47531,16.258 c 0,0 14.736,3.5469 38.238,-8.4888 23.502,-12.0357 44.083,-30.219 54.752,-42.323 10.669,-12.104 2.2019,-70.804 -8.6483,-74.688 -10.85,-3.8841 -15.845,-0.44682 -19.666,10.57 -3.8204,11.017 -9.9841,31.913 -26.252,47.876 -16.268,15.963 -43.582,25.147 -43.582,25.147 z" />
        <path
           style="fill:#007200"
           id="path1945"
           d="m 203.84,588.21 c 0,0 0.45685,8.2734 8.7578,13.551 -4.7069,-1.1758 -9.6107,0.49455 -9.6107,0.49455 0,0 10.253,1.8957 17.17,1.957 6.9169,0.0613 13.389,-2.3189 18.865,-0.68398 5.2635,1.5714 7.1574,1.9294 9.4028,9.0465 2.2454,7.1172 2.2924,9.3633 -1.2749,13.294 -3.5673,3.9308 -13.052,10.595 -21.666,9.6275 -8.6146,-0.96724 -25.228,-4.8267 -30.992,-13.371 -5.7641,-8.544 -6.1226,-13.631 -4.8883,-18.813 1.7828,-7.4852 4.6925,-9.58 14.236,-15.102 z" />
        <path
           style="fill:url(#em)"
           id="path1947"
           d="m 206.52,633.14 c 0,0 13.599,7.3264 25.722,4.0338 12.123,-3.2926 17.353,-11.12 17.353,-11.12 0,0 3.6445,1.2841 5.2028,6.6147 1.5582,5.3306 -0.26497,14.82 -9.7341,18.055 -9.4692,3.2346 -21.212,5.5217 -28.161,0.33887 -6.9497,-5.1828 -8.8473,-7.8988 -10.205,-11.203 -1.3578,-3.3045 -0.17681,-6.7185 -0.17681,-6.7185 z" />
        <path
           style="fill:url(#el)"
           id="path1949"
           d="m 228.6,656.15 c 0,0 10.496,-1.0463 15.616,-2.9063 5.1198,-1.86 9.5311,-5.0742 11.038,-8.1349 1.3737,-2.7898 2.2009,-9.2515 2.2009,-9.2515 0,0 12.103,-3.0939 16.377,3.5891 4.2731,6.683 -0.1955,12.5 -3.1767,15.454 -2.9812,2.9547 -8.0262,8.5137 -20.465,9.7286 -12.439,1.2149 -19.158,-3.8648 -21.59,-8.4794 z" />
        <path
           style="fill:url(#ek)"
           id="path1951"
           d="m 301.47,577.21 c 0,0 3.2243,5.2564 5.6001,16.784 2.3758,11.528 3.3867,17.359 10.848,17.077 7.4617,-0.28195 48.283,-19.389 52.052,-26.506 3.7696,-7.1169 26.943,-31.377 21.843,-60.653 -4.2417,-24.35 -18.648,-23.314 -23.484,-9.8179 -4.4579,12.438 -4.7098,17.749 -15.925,30.143 -11.216,12.394 -23.727,20.687 -33.292,25.017 -9.5652,4.3294 -17.642,7.9552 -17.642,7.9552 z" />
        <path
           style="fill:url(#ej)"
           id="path1953"
           d="m 301.88,585.71 c 0,0 -11.972,-17.189 -19.576,-18.34 -7.6034,-1.1508 -27.775,-0.88 -38.162,2.0061 -10.387,2.8861 -22.861,2.7848 -27.912,3.3624 -5.0509,0.57761 -9.2685,9.3525 -8.3755,15.229 0.893,5.8766 4.1664,9.4922 8.9495,11.044 4.7831,1.5522 19.2,0.37066 27.863,-1.7216 8.6625,-2.0923 22.129,-3.9922 30.691,-5.6405 8.5618,-1.6483 26.522,-5.9402 26.522,-5.9402 z" />
        <path
           style="fill:url(#ei)"
           id="path1955"
           d="m 295.42,599.85 c 0,0 -0.28182,1.6922 -0.48,2.8595 -8.8e-4,0.009 0.0122,0.0207 0.0111,0.0291 -0.36762,5.1102 -1.5957,15.018 -5.7436,18.418 -5.6775,4.6536 -10.23,5.4546 -21.512,7.0604 9.5793,5.262 13.039,17.294 13.039,17.294 0,0 18.604,-18.872 20.893,-27.393 2.2443,-8.3544 3.4358,-16.404 3.4825,-16.718 0.002,-0.0405 0.0229,-0.0703 0.0249,-0.10984 0.0663,-1.2895 0.16089,-3.6074 0.16089,-3.6074 z m -0.46885,2.8887 c -0.28183,1.6596 -0.54211,3.1031 -0.89799,5.0932 0.49323,-1.9182 0.75455,-3.6922 0.89799,-5.0932 z" />
        <path
           style="fill:url(#eh)"
           id="path1957"
           d="m 195.07,603.58 c 6.8224,-0.16602 17.103,2.7382 23.392,2.4386 6.289,-0.2996 14.711,-2.2738 19.265,-0.8594 4.554,1.4144 6.978,1.2533 8.9458,6.9054 1.9678,5.6521 2.9207,9.3979 -1.2161,13.081 -4.1368,3.6828 -6.328,5.9534 -11.953,7.2418 -5.6249,1.2883 -19.297,0.776 -26.532,-3.151 -7.2346,-3.927 -10.347,-5.3188 -13.3,-11.55 -2.9536,-6.2313 -2.9525,-9.4813 -2.287,-11.743 0.66549,-2.2613 2.2262,-2.3278 3.685,-2.3633 z" />
        <path
           style="stroke:#000000;stroke-width:5"
           id="path1959"
           d="m 349.51,254.47 c 0,0 -45.457,1.1364 -54.296,17.678 -8.8388,16.541 9.849,24.244 15.152,27.4 5.3033,3.1567 42.805,15.026 69.322,19.572 26.517,4.5457 84.474,11.49 84.474,11.49 0,0 1.7678,10.859 14.016,19.445 12.248,8.5863 20.329,11.743 20.329,11.743 l 21.087,49.119 -77.195,43.401 c 0,0 9.2857,21.429 22.5,48.214 10.5947,74.57417 -2.61873,105.01974 28.5711,18.393 3.9285,-10.536 11.964,-27.857 21.964,-37.143 10,-9.2857 32.857,-25.893 40.536,-31.429 7.6786,-5.5357 18.214,-16.964 20,-25.536 1.7857,-8.5714 1.0714,-13.393 -1.7857,-22.143 -2.8571,-8.75 -30.357,-66.429 -30.357,-66.429 0,0 4.2857,-10.893 1.6071,-28.393 -2.6786,-17.5 -5.1786,-31.25 -11.786,-34.821 -6.6071,-3.5714 -13.571,-2.3214 -13.571,-2.3214 0,0 0.65313,-9.5283 -7.1756,-11.991 -7.82873,-2.4627 -14.458,-0.94702 -14.458,-0.94702 0,0 -0.75761,-4.7982 -7.7024,-5.3033 -6.9448,-0.50507 -7.6393,0.25254 -7.6393,0.25254 0,0 0.31567,-6.0609 -0.0631,-11.049 -0.37881,-4.9876 -1.8309,-8.2075 -3.5987,-9.2808 -1.7678,-1.0733 -3.9775,-1.0102 -3.9775,-1.0102 0,0 -2.1466,-13.195 -11.869,-21.845 -9.7224,-8.65 -13.195,-8.7757 -13.195,-8.7757 0,0 2.1466,-1.4521 2.0834,-3.4724 -0.0631,-2.0203 -3.3461,-6.566 -15.531,-7.2605 -12.185,-0.69448 -16.226,1.894 -17.362,2.9042 -1.1364,1.0102 -0.94702,1.7678 -0.94702,1.7678 0,0 -8.5232,0.18941 -19.319,5.3664 -10.796,5.177 -18.751,12.185 -18.751,12.185 0,0 -3.3461,-1.7046 -6.3766,0.88389 -3.0305,2.5885 -8.46,8.7757 -9.7227,12.564 -1.2627,3.7883 -1.0102,5.9978 -1.0102,5.9978 0,0 -5.2402,5.8084 -7.8918,10.922 -2.6516,5.1139 -6.0609,9.849 -6.0609,9.849 z" />
        <path
           style="stroke:#000000;stroke-width:5;stroke-linejoin:round"
           id="path1961"
           d="m 441.25,447.84 c -0.24536,0.003 -0.51116,-0.002 -0.8125,0.0312 -40.60421,21.7272 -57.05313,43.57863 -59.9997,71.75 -5.7143,23.75 -11.161,34.237 -16.25,45.219 -4.866,10.5 -24.107,46.781 -28.125,59.281 -4.0179,12.5 -8.4107,26.696 -7.875,36.25 0.53572,9.5536 1.0848,26.991 12.781,41.188 11.6962,14.197 27.223,29.808 45.438,39.719 18.214,9.9107 49.375,11.531 49.375,11.531 0,0 11.442,10.536 22.781,20.625 11.339,10.089 37.312,28.562 37.312,28.562 0,0 2.5804,7.2366 4.8125,11.969 2.2321,4.7321 17.879,23.839 36.719,21.25 18.839,-2.5893 34.094,-20.103 48.469,-44.656 14.375,-24.553 16.781,-37.853 14.906,-47.406 -1.875,-9.5536 -6.5,-8.6562 -6.5,-8.6562 0,0 -4.0312,-8.8482 -7.7812,-12.062 -3.75,-3.2143 -11.344,-1.1562 -11.344,-1.1562 l -4.0938,-3.4062 c 0,0 14.714,-19.884 19,-26.312 4.2857,-6.4286 10.446,-20.004 18.125,-33.219 7.6786,-13.214 7.7946,-12.79 17.438,-22.344 9.6429,-9.5536 41.058,-24.263 43.469,-26.406 2.4107,-2.1428 2.6741,-8.8393 1.7812,-13.125 -0.89286,-4.2857 -1.6116,-8.2232 -6.9688,-10.188 -5.3571,-1.9643 -35.20527,0.55531 -44.812,2.9375 -32.19404,7.98318 -62.05085,32.36005 -91.93425,49.26933 -26.32031,-63.43373 -56.62567,-109.82513 -86.84706,-183.0734 -1.0938,-2.2656 2.65511,-7.59478 0.93761,-7.57038 z m 92.125,285.12 -6.9688,10.469 -4.7188,-7.5938 11.688,-2.875 z" />
        <path
           style="fill:#ffd555"
           id="path1963"
           d="m 378.87,257.75 c 0,0 -2.4622,-4.23 -3.283,-10.102 -0.82075,-5.8715 -1.0102,-15.72 -0.18941,-19.635 0.82075,-3.9143 4.2932,-11.301 3.5987,-11.996 -0.6945,-0.695 -2.6516,-0.63134 -4.4826,1.4521 -1.831,2.08344 -7.3743,6.5481 -8.3338,13.132 -0.66142,4.5388 -1.2627,14.458 -1.2627,14.458 0,0 -1.389,-3.7881 -0.94701,-8.9651 0,0 -4.672,4.9245 -6.8817,9.5333 -2.2097,4.6088 -5.177,9.4702 -5.177,9.4702 0,0 9.7441,0.14815 15.089,0.82075 4.6298,0.5826 8.5628,1.1118 11.869,1.8309 z" />
        <path
           style="fill:url(#eg)"
           id="path1965"
           d="m 381.33,258.19 8.5863,1.7678 c 0,0 9.4702,-7.3867 22.286,-10.796 12.816,-3.4093 23.865,-3.9775 29.231,-3.9143 5.3664,0.0631 9.6596,0.88389 14.016,0 4.3563,-0.88388 11.238,-2.0203 15.089,-3.4724 3.8512,-1.4521 4.672,-2.2728 4.672,-2.2728 0,0 -2.3991,-16.794 -11.932,-25.885 -9.5333,-9.0914 -16.478,-9.9121 -16.478,-9.9121 0,0 -7.0711,2.0834 -13.069,1.389 -5.9979,-0.6944 -9.7858,-1.7678 -11.932,-3.283 -2.1466,-1.5152 -2.9042,-3.5355 -2.9042,-3.5355 0,0 -9.9579,2.425 -18.266,5.8345 -8.8478,3.6312 -18.668,11.338 -18.668,11.338 -1.4521,3.4724 -5.0508,8.9651 -5.177,19.887 -0.12626,10.922 1.0733,16.541 4.5457,22.855 z" />
        <path
           style="fill:url(#ef)"
           id="path1967"
           d="m 441.69,276.46 10.179,4.8214 c 0,0 14.286,-9.5536 24.464,-13.482 10.179,-3.9286 19.464,-7.5 19.464,-7.5 0,0 -0.17857,-3.3036 -4.4643,-3.8393 -4.2857,-0.53571 -8.125,-1.25 -20.089,3.3929 -11.964,4.6429 -29.554,16.607 -29.554,16.607 z" />
        <path
           style="fill:url(#ee)"
           id="path1969"
           d="m 453.65,281.99 12.5,6.6071 c 0,0 14.643,-5.8036 27.411,-9.7321 12.768,-3.9286 24.286,-5.0893 24.286,-5.0893 0,0 -0.44643,-8.6607 -6.5179,-10.625 -6.0714,-1.9643 -10.268,-1.875 -14.554,-0.80357 -4.2857,1.0714 -12.411,3.3929 -23.036,8.3929 -10.625,5 -20.089,11.25 -20.089,11.25 z" />
        <path
           style="fill:#007200"
           id="path1971"
           d="m 514.01,302.71 c 0,0 -16.161,4.9107 -27.411,7.4107 -11.25,2.5 -15.714,2.5 -19.286,0.17857 -3.572,-2.32143 -8.0357,-5.3571 -7.9464,-8.8393 0.0893,-3.4821 2.5893,-8.5714 7.7679,-10.714 5.1786,-2.1429 14.643,-5.8929 25.268,-9.2857 10.625,-3.3928 30.089,-7.3214 35.357,-5.9821 5.2678,1.3393 11.071,9.4643 12.768,19.107 1.6964,9.6429 5.2679,27.857 2.5,36.429 -2.7678,8.5714 -5.2678,18.125 -5.2678,18.125 0,0 4.375,-8.0357 4.375,-7.6786 0,0.35714 15.47,28.798 21.784,44.96 6.3135,16.162 13.637,29.8 9.0914,41.921 -4.5457,12.122 -25.001,27.779 -36.366,35.103 -11.364,7.3236 -24.749,17.93 -31.315,28.537 -6.566,10.607 -13.016,22.604 -15.159,30.639 -2.143,8.035 -4.58219,16.1321 -4.58219,16.1321 0,0 -3.38692,4.36567 -7.02791,3.22054 -7.42177,-2.33421 -17.55162,-12.23442 -22.82338,-24.33371 -7.8571,-18.036 -24.18065,-41.74808 -24.18065,-41.74808 l 35.13163,-32.28785 57.679,-32.679 -2.5,-0.71428 -20.357,-48.75 6.25,-1.7857 c 0,0 -14.375,0.0893 -28.304,-12.679 -13.929,-12.768 -13.839,-20.893 -13.929,-24.018 -0.0893,-3.125 0.53572,-9.1964 0.53572,-9.1964 l 33.75,19.286 c 0,0 0.35714,6.3393 2.9464,9.2857 2.5893,2.9464 6.2946,5.625 14.732,7.0536 0,0 -12.143,-5.1786 -14.286,-10 -2.1428,-4.8214 -3.2143,-13.661 -2.0536,-18.661 1.1607,-5 2.0536,-11.25 5.0893,-13.304 3.0357,-2.0536 7.7679,-4.7322 7.7679,-4.7322 z" />
        <path
           style="fill:url(#ed)"
           id="path1973"
           d="m 437.18,193.78 c -7.483,-0.43654 -16.652,1.4286 -16.607,3.6607 0.0446,2.2322 8.9732,5.7589 13.705,5.8482 4.7322,0.0893 15.912,-0.76215 16.339,-4.1071 0.34755,-2.7177 -8.1081,-5.0909 -13.438,-5.4018 z" />
        <path
           id="path1997"
           transform="matrix(1.9887674,0,0,1.9887674,-940.51036,231.85399)"
           d="m 692.01172,124.56836 c 0,0 -8.12007,2.29056 -11.54883,4.19531 -7.30402,1.61377 -9.15872,7.32095 -9.90039,11.04688 0,0 0.74405,1.10512 1.71875,2.52148 -2.37199,-1.25245 -4.61541,-2.23482 -6.02148,-2.83398 -0.28537,2.3294 -0.97657,5.90625 -0.97657,5.90625 -2.03171,9.90462 -5.96156,18.28349 -10.02539,26.66406 -4.06342,8.38107 -16.63142,28.82824 -15.86914,45.08203 0.76188,16.25379 10.65808,24.63089 21.19727,33.13867 10.53969,8.50778 29.47656,10.41797 29.47656,10.41797 0,0 -5.30233,-4.52888 -7.20703,-6.6875 -1.90475,-2.15872 -3.62868,-3.55255 -4.64453,-12.82226 -1.01586,-9.26956 8.41388,-23.65055 17.62109,-25.31641 6.6413,-1.20185 11.16274,0.62743 18.40039,7.23047 7.23815,6.60308 20.39258,29.08008 20.39258,29.08008 l 6.85156,-1.39844 c 0,0 1.39604,-1.65001 3.30078,-3.30078 1.90475,-1.65077 4.11524,-2.51367 4.11524,-2.51367 0,0 -15.80057,-6.62479 -24.18164,-15.00586 -8.38107,-8.38107 -13.19922,-17.26953 -13.19922,-17.26954 -9.116,-15.69724 -10.55236,-29.03963 -13.9375,-44.86132 0,0 -0.99422,-10.56877 -0.61328,-17.42578 0.38094,-6.85702 1.85351,-13.5918 1.85351,-13.5918 l 1.72359,-17.02683 z m 0,28.51953 c -6.48907,1.10995 -12.51297,2.65482 -19.29022,-3.15053 6.21612,2.68263 12.57264,3.23698 19.29022,3.15053 z"
           style="fill:url(#linearGradient7722);stroke-width:0.50282401" />
        <path
           id="path1999"
           d="m 354.18,630.88 c 0,0 16.131,9.9867 43.184,10.985 26.244,0.96879 51.77,-3.5355 51.77,-3.5355 0,0 -25.147,8.3077 -55.18,6.1872 -20.367,-1.438 -39.775,-13.637 -39.775,-13.637 z" />
        <path
           id="path2001"
           d="m 375.4,574.31 c 0,0 13.763,9.5964 23.991,9.7227 10.228,0.12627 29.673,-2.1466 29.673,-2.1466 0,0 -18.309,4.7982 -30.81,4.0406 -12.501,-0.75762 -22.855,-11.617 -22.855,-11.617 z" />
        <path
           id="path2003"
           d="m 351.91,676.08 c 0,0 18.056,14.647 31.694,15.279 13.637,0.63135 25.001,1.2627 25.001,1.2627 l 2.5254,-3.1567 c 0,0 -14.268,1.2627 -29.294,-1.0102 -15.026,-2.2728 -29.926,-12.374 -29.926,-12.374 z" />
        <path
           style="fill:url(#dt)"
           id="path2005"
           d="m 448.82,566.35 c 2.89752,23.17317 25.53497,86.03497 31.25125,91.12501 7.00864,6.24081 13.7111,25.12618 24.72752,31.2407 10.23201,-6.24587 36.25984,-29.67949 39.43654,-30.78206 0,0 -59.86775,-95.94244 -72.90375,-116.92444 -13.036,-20.982 -20.446,-34.643 -20.446,-34.643 0,0 -3.4821,11.607 -3.5714,31.429 -0.0893,19.821 1.5063,28.554 1.5063,28.554 z" />
        <path
           style="fill:url(#ds)"
           id="path2007"
           d="m 500.258,684.671 c 15.179,15 33.661,24.821 51.518,33.125 0,0 11.25,-3.8393 16.964,-0.98214 0,0 8.3036,-9.2857 18.661,-25.714 10.357,-16.429 17.679,-38.393 32.679,-53.214 15,-14.821 43.214,-25.536 46.786,-29.464 3.572,-3.928 1.9643,-18.214 -2.3214,-19.464 -4.2857,-1.25 -36.429,-0.53572 -46.25,3.0357 -30.50681,9.43601 -65.7428,39.12101 -80.03594,59.78766 -43.26661,57.23074 -34.60343,19.34907 -38.00066,32.88978 z" />
        <path
           style="fill:#007400"
           id="path2009"
           d="m 524.52,745.53 c 0,0 -34.084,-56.837 -49.263,-68.445 -15.179,-11.607 -21.574,-14.981 -30.357,-12.054 -24.781,8.2589 -35.671,32.544 -32.589,52.946 1.4286,9.375 9.093,17.782 12.589,21.339 5.0893,5.1786 23.393,21.339 35.446,32.054 12.053,10.715 35.179,27.5 35.179,27.5 l -0.26785,-7.3214 c 0,0 4.9107,20.625 13.036,28.214 8.125,7.5893 19.375,15.893 31.161,13.036 11.786,-2.8571 27.768,-13.036 41.875,-38.304 14.107,-25.268 18.839,-36.786 18.393,-46.607 -0.446,-9.821 -5.4464,-11.25 -5.4464,-11.25 0,0 0.89286,7.2321 -1.1607,11.607 -2.05356,4.3749 -7.7679,10.357 -7.7679,10.357 0,0 9.2857,-13.661 5.3571,-25.536 -3.9286,-11.875 -8.0357,-10.536 -9.8214,-10.446 -1.7857,0.0893 -4.9107,0.625 -4.9107,0.625 0,0 4.1071,7.4107 3.125,13.839 -0.98214,6.4286 -6.25,12.768 -6.25,12.768 0,0 4.9107,-9.8214 2.6786,-19.107 -2.2321,-9.2857 -5.0893,-12.321 -13.304,-11.786 -8.2143,0.53571 -14.911,1.6964 -20,7.1428 -5.0893,5.4464 -22.857,33.75 -22.857,33.75 z" />
        <path
           style="fill:url(#dr)"
           id="path2011"
           d="m 558.47,814.67 c 6.814,-6.6696 22.857,-20.536 22.5,-36.607 -0.35714,-16.071 -12.679,-20 -21.607,-17.143 -8.928,2.857 -23.036,12.5 -30.536,25.536 -7.5,13.036 -11.964,25.357 -10.536,31.786 1.428,6.429 9.9714,11.761 17.679,10 9.4052,-2.1485 17.577,-8.753 22.5,-13.571 z" />
        <path
           style="fill:#ffd555"
           id="path2013"
           d="m 393.07,260.15 c 0,0 19.319,4.5457 28.032,7.955 8.7126,3.4093 18.94,7.4499 18.94,7.4499 0,0 14.521,-10.859 23.739,-14.773 9.218,-3.914 17.425,-6.1872 17.425,-6.1872 0,0 0.50508,-5.8084 0,-9.4702 -0.50507,-3.6618 -0.75761,-7.5761 -2.1466,-8.46 -1.389,-0.88389 -3.0305,-0.88389 -3.0305,-0.88389 l 0.75762,3.0305 c 0,0 0.63134,-0.50508 0.88388,0.50508 0.25254,1.0102 -1.894,2.9042 -5.6821,4.0406 -3.7881,1.1364 -13.637,4.4194 -25.254,3.9143 -11.617,-0.50508 -25.38,0.75761 -36.744,4.672 -11.364,3.91439 -16.92,8.2075 -16.92,8.2075 z" />
        <path
           style="fill:url(#dq)"
           id="path2015"
           d="m 367.58,279.05 -7.8571,10.536 c 0,0 -3.1481,-0.19157 -6.25,1.6071 -6.9329,4.0201 -10.536,16.607 -10.536,16.607 -22.768,-5.1786 -39.589,-12.108 -44.554,-19.464 -4.236,-6.2768 -4.9107,-9.1964 -2.3214,-11.339 2.5893,-2.1429 28.839,-4.7321 39.375,-3.5714 10.536,1.1607 32.143,5.625 32.143,5.625 z" />
        <path
           id="path2017"
           d="m 440.71,224.31 c -2.7614,0 -5,2.6139 -5,5.8438 0,3.2299 2.2386,5.8438 5,5.8438 0.76205,0 1.4786,-0.17463 2.125,-0.53125 -2.4081,-0.035 -4.3438,-2.0868 -4.3438,-4.625 0,-2.5601 1.9695,-4.6562 4.4062,-4.6562 0.59904,0 1.1667,0.14779 1.6875,0.375 -0.91594,-1.349 -2.2878,-2.25 -3.875,-2.25 z" />
        <path
           style="fill:url(#db)"
           id="path2019"
           d="m 421.79,223.92 a 5,5.8482 0 1 1 -10,0 5,5.8482 0 1 1 10,0 z"
           transform="matrix(0.88244,0,0,0.79262,75.103,53.347)" />
        <path
           id="path2021"
           d="m 458.12,225.94 c -2.7614,0 -5,2.6139 -5,5.8438 0,3.2299 2.2386,5.8438 5,5.8438 0.76205,0 1.4786,-0.20588 2.125,-0.5625 -2.4081,-0.035 -4.3438,-2.0868 -4.3438,-4.625 0,-2.5601 1.9695,-4.625 4.4062,-4.625 0.6092,0 1.1909,0.10919 1.7188,0.34375 -0.91582,-1.3522 -2.3168,-2.2188 -3.9062,-2.2188 z" />
        <path
           style="fill:url(#dc)"
           id="path2023"
           d="m 421.79,223.92 a 5,5.8482 0 1 1 -10,0 5,5.8482 0 1 1 10,0 z"
           transform="matrix(0.88244,0,0,0.79262,92.514,54.954)" />
        <path
           style="fill:url(#dp)"
           id="path2025"
           d="m 349.69,256.87 c -9.3436,-0.0293 -17.661,0.88393 -24.625,2.625 -18.571,4.6429 -28.906,15.188 -28.906,15.188 0,0 22.862,-5.0045 48.844,-1.9688 25.982,3.0357 44.094,11.812 44.094,11.812 0,0 7.6295,-6.808 17.094,-5.4688 9.4643,1.3393 13.125,14.719 13.125,14.719 0,0 10.58,2.5893 21.562,6.875 10.982,4.2857 22.938,9.9062 22.938,9.9062 0,0 -5.5268,-4.2232 -6.6875,-9 -1.1607,-4.7768 7.0625,-11.875 7.0625,-11.875 0,0 -28.232,-15.027 -60.375,-24.312 -20.089,-5.8036 -38.552,-8.4512 -54.125,-8.5 z m 153.12,51.562 c 0,0 -16.292,4.6799 -21.406,5.4375 -5.1139,0.75764 -10.625,-0.0625 -10.625,-0.0625 l 28.156,16.406 c 0,0 -0.37881,-4.5992 0,-10.281 0.37881,-5.6821 3.875,-11.5 3.875,-11.5 z" />
        <path
           style="fill:url(#do)"
           id="path2027"
           d="m 478.74,241.81 c -6.6861,5.4455 -16.294,5.9767 -24.562,7.3125 -17.527,-0.0976 -35.679,0.0167 -51.746,8.0252 -4.5718,1.5352 -4.7692,2.9584 0.62249,3.4314 12.673,2.919 24.668,7.8946 36.717,12.7 11.881,-9.1242 25.072,-16.313 39.531,-20.25 0.29742,-3.7935 0.0975,-7.6822 -0.5625,-11.219 z" />
        <path
           style="fill:url(#dn)"
           id="path2029"
           d="m 376.34,218.44 c -5.5931,4.7422 -9.4088,11.407 -8.8438,18.938 -0.54501,3.1832 -0.31377,15.431 -2.5779,12.288 -1.3756,-2.5668 -2.6007,-5.3067 -2.8284,-8.1939 -2.8977,3.5376 -4.358,7.9143 -6.75,11.719 6.5747,-0.13823 14.178,1.2171 20.062,1.6562 -3.038,-9.4947 -3.4948,-20.271 -1.2188,-30 0.6671,-1.9768 1.9355,-4.9085 2.1562,-6.4062 z" />
        <path
           style="fill:url(#dm)"
           id="path2031"
           d="m 466.06,313.78 c 0,0 -0.62055,6.0625 -0.53125,9.1875 0.0893,3.125 0.009,11.263 13.938,24.031 13.147,12.051 26.521,12.658 28,12.688 7.7991,-2.1749 17.312,-7.75 17.312,-7.75 0,0 -3.6844,-1.2804 -7.5,-2.625 0.0185,0.008 0.21875,0.0937 0.21875,0.0937 -8.4375,-1.4286 -12.161,-4.1161 -14.75,-7.0625 -2.5893,-2.9464 -2.9375,-9.2812 -2.9375,-9.2812 l -33.75,-19.281 z" />
        <path
           style="fill:url(#dl)"
           id="path2033"
           d="m 525.15,275.22 c -7.3999,-0.0989 -23.453,3.2813 -32.75,6.25 -10.625,3.3929 -20.103,7.1384 -25.281,9.2812 -5.1786,2.1429 -7.6607,7.2366 -7.75,10.719 -0.0893,3.4822 4.3661,6.5223 7.9375,8.8438 3.5714,2.3215 8.0312,2.3125 19.281,-0.1875 11.2498,-2.5 27.406,-7.4062 27.406,-7.4062 0,0 -0.3088,0.16764 -0.34375,0.1875 l 1.5312,-0.65625 25.969,-4.0938 c -0.20861,-1.1727 -0.44791,-2.5559 -0.625,-3.5625 -1.6964,-9.6428 -7.5134,-17.786 -12.781,-19.125 -0.65848,-0.16741 -1.5366,-0.23588 -2.5938,-0.25 z" />
        <path
           style="fill:url(#dk)"
           id="path2035"
           d="m 519.65,303.24 c -4.5266,0.62386 -12.857,3.2143 -15.446,14.375 -2.5893,11.161 -1.0714,19.821 2.1429,22.411 3.2143,2.5893 7.0536,6.4286 11.964,8.2143 4.9107,1.7857 15,0.17857 17.232,-2.5893 2.2321,-2.7679 5.3571,-12.768 5.8036,-18.929 0.4465,-6.161 0.26785,-18.571 -4.1964,-21.607 -4.4643,-3.0357 -11.73,-2.6702 -17.5,-1.875 z" />
        <path
           style="fill:url(#dj)"
           id="path2037"
           d="m 474.65,500.03 c 0,0 -15,-35.536 -3.2143,-50 11.786,-14.464 19.464,-18.036 28.393,-23.036 8.929,-5 26.786,-15.536 26.786,-15.536 0,0 16.964,4.6429 20.536,16.25 3.5714,11.607 -1.7857,20.179 -16.429,28.214 -14.643,8.0357 -56.071,44.107 -56.071,44.107 z" />
        <path
           style="fill:url(#di)"
           id="path2039"
           d="m 569.65,615.99759 c 7.3813,-1.0704 45.536,-21.50759 52.5,-22.75759 6.9643,-1.25 40.893,-3.3929 42.321,-2.3214 1.428,1.0715 3.3928,8.2143 2.8571,11.25 -0.5357,3.0357 -1.6071,5.1786 -5.5357,6.9643 -3.9286,1.7857 -37.857,18.571 -43.393,26.429 -5.5357,7.8571 -10.179,9.2857 -14.821,18.75 -4.6429,9.4643 -10.714,21.786 -17.679,33.036 -6.9643,11.25 -20.179,25.893 -20.179,25.893 l -43.75,-56.964 c 17.12035,-15.72155 29.07831,-26.03106 47.6796,-40.27931 z" />
        <path
           style="fill:url(#df)"
           id="path2045"
           d="m 523.5,747.8 -13.006,36.239 c 0,0 -93.565,-68.817 -92.808,-82.201 0.757,-13.384 14.142,-29.8 25.759,-32.577 11.617,-2.777 25.254,3.283 32.83,13.385 7.5761,10.102 47.225,65.155 47.225,65.155 z" />
        <path
           style="fill:url(#de)"
           id="path2047"
           d="m 522.87,761.69 c 6.2658,-15.807 20.934,-35.799 24.37,-37.754 4.5711,-2.6012 13.637,-4.7982 19.698,-2.9042 5.9837,1.8699 7.955,10.354 7.7024,13.763 -0.25254,3.4093 -0.75761,10.354 -3.0305,15.531 -2.2728,5.177 -34.598,17.804 -41.037,17.425 -6.4397,-0.37881 -8.9063,-3.0238 -7.7024,-6.0609 z" />
        <path
           style="fill:url(#dd)"
           id="path2049"
           d="m 576.41,724.19 c 0,0 4.1037,-1.5784 6.9448,-0.31568 2.841,1.2627 6.0609,7.3236 7.0079,11.806 0.947,4.4824 -0.63134,11.112 -1.9572,14.205 -1.3258,3.0936 -5.9978,9.4702 -5.9978,9.4702 l -10.985,-5.8084 c 0,0 3.1567,-5.3033 5.2402,-9.4702 2.0835,-4.1669 2.9673,-7.6393 2.6516,-10.607 -0.31567,-2.9673 -2.9042,-9.2808 -2.9042,-9.2808 z" />
        <path
           style="stroke:#000000;stroke-width:5"
           id="path2051"
           d="m 328.36,367.79 c 0,0 -5.5558,2.3991 -8.0812,6.8185 -2.5254,4.4194 -2.1466,12.753 -2.1466,12.753 0,0 -11.358,0.69982 -19.929,-2.2466 -8.571,-2.94642 -30.625,-15.893 -47.857,-16.429 -17.232,-0.53572 -28.304,-1.6964 -42.143,9.5536 -13.839,11.25 -15.982,25.804 -16.875,33.304 -0.89285,7.5 -2.3214,17.946 4.1072,28.214 6.4286,10.268 10.357,13.929 16.518,15.446 6.1607,1.5178 15.357,0.80357 15.357,0.80357 0,0 1.4286,15.268 8.3036,17.321 6.875,2.0536 10.357,-8.3036 10.357,-8.3036 0,0 16.786,10 26.964,11.964 10.179,1.9643 19.018,1.6964 19.018,1.6964 0,0 2.2322,12.054 10.268,12.232 8.0357,0.17857 10.357,-13.839 10.357,-13.839 0,0 15.982,-2.0536 26.161,-4.5536 10.179,-2.5 24.196,-8.2143 24.196,-8.2143 0,0 9.6192,15.858 12.965,21.919 3.3461,6.0609 11.49,22.539 24.181,27.211 10.209,3.7584 19.003,1.3258 21.592,0.0631 2.5885,-1.2627 9.1545,-8.0812 13.006,-15.279 3.8512,-7.1973 7.6393,-14.205 13.448,-25.822 5.8084,-11.617 15.91,-26.264 22.476,-36.366 6.566,-10.102 18.056,-33.84 11.996,-49.75 -6.0609,-15.91 -11.364,-18.94 -14.9,-21.087 -3.5355,-2.1466 -5.0508,-3.1567 -5.0508,-3.1567 0,0 -1.8309,-11.806 -0.50508,-24.496 1.3119,-12.557 2.9042,-24.622 2.9042,-24.622 -35.608,-14.9 -95.207,-24.622 -106.07,-23.107 -10.863,1.515 -14.355,11.68 -16.541,18.814 -4.7982,15.657 -8.6494,36.302 -14.079,59.157 z" />
        <path
           style="fill:url(#cu)"
           id="path2053"
           d="m 369.8,279.51 c 0,0 5.8463,1.2142 8.4979,2.3837 2.6516,1.1695 9.4724,3.8223 9.4724,3.8223 l -8.5863,13.149 c 0,0 8.46,-11.916 14.71,-15.393 6.2503,-3.4768 9.9121,-3.5401 12.564,-2.7815 2.6516,0.7586 7.0711,4.0458 9.1545,9.2295 2.0834,5.1837 4.23,12.643 4.8614,17.068 0.63135,4.4251 1.1364,8.9134 1.1364,8.9134 0,0 0.44194,-12.39 -1.7046,-20.671 0,0 21.466,7.0802 24.812,8.9134 3.346,1.8332 19.13,8.5341 19.13,8.5341 0,0 -2.9673,11.632 -3.8512,26.298 -0.88388,14.666 0,22.505 0,22.505 l -8.2075,0.63216 c 0,0 11.112,0.37929 17.93,7.8387 6.8185,7.4594 10.859,16.436 11.49,23.643 0.63135,7.2065 -4.0406,26.424 -11.364,38.941 -7.3236,12.517 -19.824,29.079 -24.496,39.067 -4.672,9.988 -15.91,36.286 -26.011,40.458 -10.101,4.172 -22.35,-0.5057 -25.759,-4.4251 -3.4093,-3.9194 -7.8287,-7.9652 -13.89,-18.712 -6.0609,-10.747 -13.763,-25.413 -13.763,-25.413 l 4.4194,-2.1493 c 0,0 9.7227,19.976 13.132,25.539 3.4093,5.563 8.2075,15.172 12.501,16.436 4.2935,1.264 10.102,2.2758 14.773,0 4.672,-2.2758 13.637,-12.011 15.657,-20.735 2.0203,-8.7237 5.4296,-17.574 7.4499,-28.573 2.0203,-11 9.5964,-60.308 9.5964,-60.308 5.8084,-0.12627 14.647,0.63377 19.572,3.4117 -2.1466,-4.2932 -11.617,-10.112 -23.486,-7.963 -11.869,2.1493 -21.845,10.241 -21.845,10.241 0,0 14.521,-5.6876 18.814,-4.93 0,0 -5.5558,15.044 -16.036,26.803 -10.48,11.758 -34.188,29.965 -46.72,35.78 -18.378,8.5285 -32.531,12.89 -44.022,15.292 -11.49,2.4022 -36.653,6.525 -54.348,2.7355 -21.097,-4.5182 -58.282,-31.467 -58.282,-31.467 0,0 2.5221,7.0644 11.004,10.283 -5.0893,0.26818 -15.973,1.0099 -22.032,-4.5576 -10.345,-9.506 -14.656,-18.736 -11.942,-40.228 2.436,-19.295 16.979,-37.862 40.915,-38.708 36.676,-1.297 52.604,17.371 72.611,18.686 16.682,1.0964 37.955,-3.6104 42.433,-12.693 3.9533,-8.0182 8.3378,-17.729 10.022,-30.573 1.3767,-10.499 5.2064,-33.718 -3.1706,-35.259 -10.701,-1.9686 -13.874,21.197 -16.313,35.505 -2.4392,14.307 -0.71837,22.467 -0.71837,22.467 0,0 -1.9422,0.0911 -4.4422,1.8792 8.3659,-0.69724 12.518,5.6385 12.518,5.6385 -5.9821,9.387 -27.206,10.547 -27.206,10.547 0,0 -3.4766,-12.493 9.4698,-17.321 5.8036,-19.4 6.2482,-32.91 10.273,-46.734 4.0252,-13.824 7.1243,-27.122 16.88,-30.731 5.402,-1.9983 7.7287,4.5822 11.523,12.405 0,0 -0.4354,-12.158 -6.864,-14.214 z" />
        <path
           style="fill:url(#ct)"
           id="path2055"
           d="m 359.3,291.47 c -0.58802,-0.004 -1.231,0.094 -1.9062,0.34375 -9.7562,3.609 -12.85,16.926 -16.875,30.75 -4.0252,13.824 -4.4777,27.319 -10.281,46.719 -12.946,4.8276 -9.4688,17.312 -9.4688,17.312 0,0 21.237,-1.1442 27.219,-10.531 0,0 -4.1653,-6.3535 -12.531,-5.6562 2.5,-1.7881 4.4375,-1.875 4.4375,-1.875 0,0 -1.7204,-8.1613 0.71875,-22.469 2.4392,-14.307 5.6115,-37.469 16.312,-35.5 4.6356,0.8528 5.5437,8.3558 5.1875,16.656 1.9451,-8.6299 4.954,-21.197 5.3438,-26.031 -2.5624,-5.411 -4.6887,-9.6954 -8.1562,-9.7188 z" />
        <path
           style="fill:url(#cs)"
           id="path2057"
           d="m 376.78,305.1 c 3.219,-8.9 10.607,-18.814 18.056,-22.223 7.0498,-3.2262 12.269,-3.3912 15.531,-0.63134 4.9245,4.1669 7.8287,9.4702 9.7227,22.855 1.894,13.385 2.0203,27.022 2.1466,27.905 0.12627,0.88389 -34.598,16.92 -42.679,5.0508 -8.0812,-11.869 -6.8606,-21.668 -2.7779,-32.956 z" />
        <path
           id="path2059"
           d="m 395.6,388.94 -0.12627,3.7881 c 0,0 4.9245,-6.4397 10.733,-9.849 5.8084,-3.4093 20.329,-8.2075 20.329,-8.2075 l -14.268,2.5254 c 0,0 4.5457,-18.056 3.5355,-35.86 -1.0102,-17.804 -1.389,-39.901 -18.435,-40.659 -15.786,-0.70161 -27.527,22.35 -29.168,41.164 -1.641,18.814 2.9042,38.891 5.5558,41.416 2.6516,2.5254 8.8388,3.9144 12.248,4.4194 3.4093,0.50508 9.5964,1.2627 9.5964,1.2627 z" />
        <path
           style="fill:url(#cr)"
           id="path2061"
           d="m 339.85,326.19 c 3.0305,-9.7227 5.2357,-20.961 9.15,-27.4 3.2582,-5.3603 7.6229,-8.0093 10.607,-7.4499 4.0406,0.75761 9.1799,10.259 9.2176,15.657 0.18937,27.085 -6.0057,18.119 -6.4713,11.206 -0.23676,-3.5153 -2.1781,-7.6077 -6.2819,-7.7971 -4.1385,-0.19101 -8.7789,2.9342 -11.88,15.956 -0.70564,2.9635 -4.3415,-0.17242 -4.3415,-0.17242 z" />
        <path
           style="fill:#ffffff"
           id="path2063"
           d="m 396.61,387.43 c 4.2932,-5.2402 12.248,-8.3338 12.248,-8.3338 0,0 5.6821,-16.162 4.5457,-36.744 -1.1364,-20.582 -2.0203,-32.577 -8.8388,-36.744 -6.8185,-4.167 -12.501,-2.3991 -16.415,0.25254 -3.9143,2.6516 -15.279,14.521 -17.425,36.492 -2.1466,21.971 2.9042,37.376 5.8084,40.154 2.9042,2.7779 20.077,4.9245 20.077,4.9245 z" />
        <path
           style="fill:url(#cq)"
           id="path2065"
           d="m 395.49,305.19 c -10.289,1.3954 -15.843,12.513 -19.059,21.178 -6.1179,16.487 -6.1974,35.87 0.12139,52.415 2.1148,5.5373 13.706,4.8094 19.366,6.3795 3.6968,-2.6151 5.0627,-4.8958 8.4464,-6.1607 5.4947,-2.0541 4.9072,-9.4445 5.8446,-14.456 3.0244,-16.169 1.2379,-33.261 -1.8134,-49.387 -1.1596,-6.1285 -6.6882,-10.812 -12.906,-9.9688 z" />
        <path
           style="fill:#ffffff"
           id="path2067"
           d="m 341.49,369.06 c 4.4194,1.389 7.4499,5.2402 7.4499,5.2402 0,0 7.4499,-13.069 9.2808,-27.716 1.8309,-14.647 3.4093,-30.115 -0.82075,-33.272 -4.23,-3.1567 -8.46,4.8614 -9.849,9.3439 -1.389,4.4826 -5.0333,18.507 -5.9978,27.779 -0.6525,6.2731 -0.69655,14.076 -0.0631,18.625 z" />
        <path
           style="fill:#aa0000"
           id="path2069"
           d="m 372.49,460.29 c 0,0 6.6923,15.152 11.238,22.728 4.5457,7.5761 6.4397,12.627 10.607,16.668 0.88388,-9.2176 2.3991,-29.168 6.9448,-35.482 7.0844,-9.8394 13.763,-9.0914 13.763,-9.0914 0,0 4.672,-5.3033 8.7126,-7.3236 4.0406,-2.0203 8.9651,-3.1567 8.9651,-3.1567 l 7.5762,-48.109 c 0,0 -7.0711,14.521 -13.385,22.097 -6.3134,7.5762 -25.633,24.37 -35.103,30.683 -9.4702,6.3134 -19.319,10.985 -19.319,10.985 z" />
        <path
           style="fill:#ff0000"
           id="path2071"
           d="m 413.28,458.01 c -2.1466,0.75761 -8.46,2.7779 -11.617,9.9753 -3.157,7.1974 -5.3033,32.325 -5.3033,32.325 0,0 5.9346,4.4194 12.122,1.5152 6.1874,-2.9042 12.753,-10.48 14.395,-16.036 1.6415,-5.5558 9.5964,-38.765 9.5964,-38.765 0,0 -11.743,2.3991 -17.425,12.122 -5.6821,9.7227 -6.566,20.961 -6.566,20.961 0,0 -1.2627,-12.374 4.7982,-22.097 z" />
        <path
           id="path2073"
           d="m 388.15,345.7 a 10.859,21.15 0 1 1 -21.718,0 10.859,21.15 0 1 1 21.718,0 z"
           transform="translate(20.832,5.3033)" />
        <path
           style="fill:url(#cz)"
           id="path2075"
           d="m 388.15,345.7 a 10.859,21.15 0 1 1 -21.718,0 10.859,21.15 0 1 1 21.718,0 z"
           transform="matrix(0.82214,0,0,0.82214,87.936,66.788)" />
        <path
           style="fill:#ffffff"
           id="path2077"
           d="m 388.15,345.7 a 10.859,21.15 0 1 1 -21.718,0 10.859,21.15 0 1 1 21.718,0 z"
           transform="matrix(0.49978,0,0,0.49978,208.05,171.79)" />
        <path
           style="fill:url(#cp)"
           id="path2079"
           d="m 355.21,314.62 c -4.0753,-0.0954 -8.2086,13.466 -9.9881,21.27 -2.3984,10.518 -5.0492,22.484 -1.7976,32.592 0.80359,2.4979 5.0895,4.769 6.817,0.40178 6.2455,-15.789 8.6291,-31.676 7.5893,-48.496 -0.0949,-1.5354 -0.0854,-5.7085 -2.6205,-5.7679 z" />
        <path
           id="path2081"
           d="m 388.15,345.7 a 10.859,21.15 0 1 1 -21.718,0 10.859,21.15 0 1 1 21.718,0 z"
           transform="matrix(0.50121,0.038162,-0.051027,0.67016,180.13,104.74)" />
        <path
           style="fill:url(#da)"
           id="path2083"
           d="m 388.15,345.7 a 10.859,21.15 0 1 1 -21.718,0 10.859,21.15 0 1 1 21.718,0 z"
           transform="matrix(0.41206,0.031375,-0.041951,0.55097,210.63,148.51)" />
        <path
           style="fill:#ffffff"
           id="path2085"
           d="m 388.15,345.7 a 10.859,21.15 0 1 1 -21.718,0 10.859,21.15 0 1 1 21.718,0 z"
           transform="matrix(0.25049,0.019073,-0.025502,0.33493,265.47,223.46)" />
        <path
           style="fill:url(#co)"
           id="path2087"
           d="m 348.24,382.38 c -9.0005,6.0807 -33.84,13.89 -54.296,5.8084 -20.456,-8.0816 -46.214,-19.193 -62.124,-15.405 -15.91,3.788 -35.103,17.425 -36.365,41.669 -1.262,24.244 17.678,23.739 23.991,27.779 6.3135,4.0406 37.376,25.254 57.831,29.547 20.456,4.2932 72.342,-11.413 85.358,-32.577 9.7459,-15.848 2.4647,-68.211 -14.395,-56.821 z" />
        <path
           style="fill:url(#cn)"
           id="path2089"
           d="m 387.13,412.68 c 3.0831,-10.91 7.3236,-20.961 19.445,-27.905 12.1214,-6.944 16.582,-8.4854 42.931,-17.173 11.218,-3.6986 22.223,5.0508 26.39,14.773 4.1669,9.7227 4.2932,11.996 0.88388,23.486 -3.4093,11.49 -9.9752,21.466 -16.668,17.93 -6.6923,-3.5355 8.7126,-25.633 1.894,-30.431 -6.8185,-4.7982 -13.385,-7.4499 -21.845,-5.9346 -8.46,1.5152 -19.951,5.177 -22.855,10.354 -2.9042,5.177 -4.672,15.531 -11.112,21.592 -6.4397,6.0609 -12.627,13.385 -18.183,8.5863 -5.5558,-4.7982 -2.2711,-10.369 -0.88388,-15.279 z" />
        <path
           style="fill:url(#cm)"
           id="path2091"
           d="m 219.65,441.99 c 0,0 33.036,23.214 49.107,26.964 16.071,3.75 39.107,5.8929 69.821,-3.0357 30.714,-8.9286 57.857,-25.179 74.464,-42.143 16.607,-16.964 21.25,-27.5 21.25,-27.5 0,0 -75.183,14.478 -101.79,21.786 -30.366,8.3414 -94.093,10.316 -112.86,23.929 z" />
        <path
           id="path2093"
           d="m 248.11,403.42 c 0,0 9.5536,-5.1786 16.429,4.375 6.8754,9.5536 9.375,19.107 7.5,24.911 -1.875,5.8036 -8.3036,8.4821 -11.518,7.9464 -3.2143,-0.53571 -8.2237,-5.3344 -10.089,-13.661 -1.5542,-6.9367 -2.1033,-18.612 4.1071,-23.036 -1.8903,-0.7474 -4.8389,-0.56372 -6.4286,-0.53572 z" />
        <path
           id="path2095"
           d="m 228.65,394.32 c -6.0714,0.35714 -11.071,2.3214 -17.5,11.25 -6.7283,9.3449 -6.0714,15.714 -5.3571,18.929 0.71428,3.2143 2.5893,5.625 6.5179,5.4464 3.9286,-0.17857 8.0357,-4.1964 9.9107,-7.3214 1.875,-3.125 4.2857,-15.089 3.8393,-18.839 -0.44643,-3.75 -3.2143,-6.5178 -3.2143,-6.5178 0,0 2.0536,-1.6964 5.8036,-2.9464 z" />
        <path
           style="fill:url(#cl)"
           id="path2097"
           d="m 256.69,404.49 c 0,0 2.3893,0.19747 4.2857,2.3214 2.2321,2.5 6.3393,9.6429 7.6786,14.196 1.3393,4.5536 0.80357,11.696 -1.6071,14.018 -2.4107,2.3214 -5.0429,3.5643 -7.3214,2.3214 -2.9464,-1.6071 -5.2678,-2.6786 -7.2321,-9.1964 -1.9643,-6.5178 -1.3383,-14.628 -0.0893,-18.125 1.3393,-3.75 4.2857,-5.5357 4.2857,-5.5357 z" />
        <path
           style="fill:url(#ck)"
           id="path2099"
           d="m 221.06,398.24 c 0,0 2.5893,2.2321 2.8571,5.2679 0.26786,3.0357 -0.44643,11.696 -2.6786,16.429 -2.2322,4.7321 -5.7143,7.4107 -9.1072,7.5 -3.3928,0.0893 -4.7321,-3.125 -5,-5.5357 -0.26785,-2.4107 0.71429,-8.0357 3.125,-11.964 2.4107,-3.9286 5,-7.1429 7.0536,-9.1964 2.0536,-2.0536 3.75,-2.5 3.75,-2.5 z" />
        <path
           style="fill:url(#cj)"
           id="path2101"
           d="m 229.99,455.03 13.929,8.3036 c 0,0 -1.0714,8.3928 -6.6071,8.0357 -5.5357,-0.35714 -7.3214,-16.339 -7.3214,-16.339 z" />
        <path
           style="fill:url(#ci)"
           id="path2103"
           d="m 294.36,478.6 15.089,-0.98214 c 0,0 -2.5,11.429 -7.3214,11.607 -4.8214,0.17857 -7.7679,-10.625 -7.7679,-10.625 z" />
        <path
           style="fill:url(#ch)"
           id="path2105"
           d="m 370.34,461.34 -4.4062,2.1562 c 0,0 7.6891,14.66 13.75,25.406 6.0609,10.747 10.497,14.799 13.906,18.719 3.4093,3.9194 15.648,8.6097 25.75,4.4375 3.8336,-1.5834 7.8226,-6.363 11.562,-12.219 l -9.4062,-7.0312 c -3.4881,4.992 -7.9106,9.1482 -10.75,10.531 -4.672,2.2758 -10.457,1.2643 -14.75,0 -4.293,-1.2643 -9.0907,-10.875 -12.5,-16.438 -3.4093,-5.563 -13.156,-25.562 -13.156,-25.562 z" />
      </g>
    </g>
    <g
       style="display:inline"
       id="g7909"
       transform="matrix(1.1138996,0,0,1.1138996,-275.11091,46.016869)">
      <circle
         style="fill:#e39a14;fill-opacity:1;stroke:#000000;stroke-width:1.67968464;stroke-miterlimit:4;stroke-dasharray:none;stroke-opacity:1"
         id="circle1461"
         cx="286.68423"
         cy="27.866667"
         r="30.20311" />
      <circle
         style="fill:#ffce74;fill-opacity:1;stroke:none;stroke-width:1.38112414;stroke-opacity:1"
         id="circle1463"
         cx="296.08954"
         cy="29.728579"
         r="24.773914"
         clip-path="url(#clipPath8185)" />
      <path
         style="fill:#ffecca;fill-opacity:1;fill-rule:evenodd;stroke:#000000;stroke-width:1.85025656;stroke-miterlimit:4;stroke-dasharray:none"
         d="m 292.07915,53.883583 c 25.19993,-2.942387 19.72627,-31.171878 4.65581,-16.507815 -6.59644,-20.814902 -22.83939,1.729068 -4.65581,16.507815 z"
         id="path1467" />
      <circle
         r="30.20311"
         cy="27.866667"
         cx="286.68423"
         id="circle8181"
         style="fill:none;fill-opacity:1;stroke:#000000;stroke-width:2.30810738;stroke-miterlimit:4;stroke-dasharray:none;stroke-opacity:1" />
    </g>
    <g
       id="text8194"
       style="font-style:normal;font-variant:normal;font-weight:normal;font-stretch:normal;font-size:18.66666603px;line-height:1.25;font-family:'Nasalization Rg';-inkscape-font-specification:'Nasalization Rg';letter-spacing:0px;word-spacing:0px;fill:#ffffff;fill-opacity:1;stroke:none"
       transform="translate(-4.5774649,20.422536)"
       aria-label="THE TEAM ">
      <path
         id="path1279"
         style="font-style:normal;font-variant:normal;font-weight:normal;font-stretch:normal;font-size:17.06666756px;font-family:Raiders;-inkscape-font-specification:Raiders;letter-spacing:2px;fill:#ffffff"
         d="m 50.083097,187.60315 -2.740763,-3.42438 -6.409056,5.1296 -1.525016,-1.90539 -3.117919,2.49548 5.790794,7.23517 3.117919,-2.49548 -1.525015,-1.9054 z" />
      <path
         id="path1281"
         style="font-style:normal;font-variant:normal;font-weight:normal;font-stretch:normal;font-size:17.06666756px;font-family:Raiders;-inkscape-font-specification:Raiders;letter-spacing:2px;fill:#ffffff"
         d="m 43.806366,179.50955 -2.242006,-3.76983 -3.696481,2.19839 -1.36963,-2.30297 3.696481,-2.19839 -2.242005,-3.76982 -10.488034,6.23749 2.242006,3.76982 3.491121,-2.07625 1.36963,2.30296 -3.491121,2.07626 2.242005,3.76982 z" />
      <path
         id="path1283"
         style="font-style:normal;font-variant:normal;font-weight:normal;font-stretch:normal;font-size:17.06666756px;font-family:Raiders;-inkscape-font-specification:Raiders;letter-spacing:2px;fill:#ffffff"
         d="m 36.346683,166.24191 -3.209316,-7.61133 -3.050821,1.28638 1.53835,3.6484 -1.179441,0.49731 -1.359318,-3.2238 -2.877837,1.21344 1.359318,3.2238 -1.085086,0.45753 -1.498565,-3.55405 -3.050821,1.28638 3.169531,7.51697 z" />
      <path
         id="path1285"
         style="font-style:normal;font-variant:normal;font-weight:normal;font-stretch:normal;font-size:17.06666756px;font-family:Raiders;-inkscape-font-specification:Raiders;letter-spacing:2px;fill:#ffffff"
         d="m 28.892369,143.46203 -0.765183,-4.31887 -8.083182,1.43211 -0.425763,-2.40311 -3.932359,0.69671 1.616709,9.12509 3.932359,-0.69671 -0.425763,-2.40311 z" />
      <path
         id="path1287"
         style="font-style:normal;font-variant:normal;font-weight:normal;font-stretch:normal;font-size:17.06666756px;font-family:Raiders;-inkscape-font-specification:Raiders;letter-spacing:2px;fill:#ffffff"
         d="m 27.399109,133.89051 -0.487078,-8.2459 -3.305173,0.19524 0.233476,3.95257 -1.277773,0.0755 -0.206304,-3.49258 -3.117765,0.18417 0.206304,3.49258 -1.175551,0.0694 -0.227438,-3.85035 -3.305172,0.19523 0.48104,8.14367 z" />
      <path
         id="path1289"
         style="font-style:normal;font-variant:normal;font-weight:normal;font-stretch:normal;font-size:17.06666756px;font-family:Raiders;-inkscape-font-specification:Raiders;letter-spacing:2px;fill:#ffffff"
         d="m 22.742238,117.47934 -1.352366,-0.47235 q -0.501055,-0.17242 -0.886566,-0.28531 -0.384304,-0.12992 -0.687111,-0.20273 -0.302806,-0.0728 -0.555749,-0.12498 -0.252943,-0.0522 -0.508302,-0.0703 l 0.006,-0.0851 q 0.255358,0.0181 0.513132,0.002 0.257773,-0.0159 0.567826,-0.0453 0.310053,-0.0293 0.707641,-0.0867 0.398795,-0.0744 0.919173,-0.17433 l 1.405504,-0.27671 z m 4.014394,6.11914 0.333317,-4.69859 -1.50558,-0.48322 0.234288,-3.30263 1.559926,-0.28286 0.333317,-4.69859 -12.473996,3.39248 -0.345394,4.86883 z" />
      <path
         id="path1291"
         style="font-style:normal;font-variant:normal;font-weight:normal;font-stretch:normal;font-size:17.06666756px;font-family:Raiders;-inkscape-font-specification:Raiders;letter-spacing:2px;fill:#ffffff"
         d="m 30.710905,96.609317 1.011192,-4.180236 -12.314022,-0.994585 -1.063357,4.395883 2.673682,1.57738 q 0.981394,0.588576 1.779243,0.992281 0.80186,0.387116 1.540843,0.671228 l -0.01605,0.06635 q -0.613228,-0.0781 -1.399825,-0.09279 -0.803186,-0.0187 -1.812918,0.01799 -0.140731,0.0011 -0.248286,0.01018 -0.124143,0.0051 -0.194508,0.0056 l -3.140765,0.135759 -1.063356,4.395883 11.371045,4.89282 1.011192,-4.18023 -4.570079,-1.64982 q -0.535374,-0.18218 -1.058172,-0.34377 -0.518786,-0.17817 -1.070748,-0.36436 0.530286,0.058 1.142976,0.0658 0.596101,0.004 1.291195,-0.0388 l 4.890804,-0.25676 0.613938,-2.538001 -4.232727,-2.463718 q -0.598789,-0.355553 -1.130688,-0.62469 -0.548487,-0.273149 -1.046672,-0.463895 0.555437,0.09924 1.114887,0.181895 0.542862,0.07864 1.102312,0.161294 z" />
    </g>
  </g>
  <path
     style="display:none;fill:#000000;fill-opacity:1;stroke-width:3.39491391"
     d="M 75.715421,39.033685 A 99.32344,99.32344 0 0 1 208.88647,83.705755 99.32344,99.32344 0 0 1 164.21557,216.87718 99.32344,99.32344 0 0 1 31.043773,172.20745 99.32344,99.32344 0 0 1 75.712321,39.035235 l 44.252399,88.920585 z"
     id="path8196" />
  <path
     id="path1137"
     d="M 51.870933,189.64583 A 99.32344,99.32344 0 0 1 60.550673,49.450311 99.32344,99.32344 0 0 1 200.74626,58.128834 99.32344,99.32344 0 0 1 192.06896,198.32448 99.32344,99.32344 0 0 1 51.873233,189.64843 L 126.30917,123.88799 Z"
     style="display:none;fill:#000000;fill-opacity:1;stroke-width:3.39491391" />
</svg>
